<svg xmlns="http://www.w3.org/2000/svg" xmlns:xlink="http://www.w3.org/1999/xlink" width="136" height="136" viewBox="0 0 136 136">
  <defs>
    <clipPath id="clip-icon-menu-behance">
      <rect width="136" height="136"/>
    </clipPath>
  </defs>
  <g id="icon-menu-behance" clip-path="url(#clip-icon-menu-behance)">
    <rect width="136" height="136" fill="rgba(255,255,255,0)"/>
    <path id="Icon_awesome-behance" data-name="Icon awesome-behance" d="M54.853,43.557c7.519-3.594,11.443-9.032,11.443-17.5C66.3,9.368,53.86,5.3,39.508,5.3H0V89.094H40.619c15.226,0,29.531-7.306,29.531-24.329,0-10.521-4.989-18.3-15.3-21.208ZM18.418,19.606H35.7c6.644,0,12.626,1.868,12.626,9.576,0,7.117-4.658,9.978-11.231,9.978H18.418ZM38.113,74.861H18.418V51.785H38.492c8.11,0,13.24,3.381,13.24,11.964C51.732,72.212,45.608,74.861,38.113,74.861Zm84.762-56.91H88.9V9.7h33.976Zm13.311,41.683c0-17.945-10.5-32.912-29.531-32.912-18.489,0-31.044,13.9-31.044,32.108,0,18.891,11.893,31.848,31.044,31.848,14.493,0,23.88-6.526,28.4-20.4H120.345c-1.584,5.178-8.11,7.921-13.169,7.921-9.765,0-14.9-5.722-14.9-15.439h43.764C136.115,61.762,136.186,60.7,136.186,59.634ZM92.3,52.257c.544-7.968,5.84-12.957,13.831-12.957,8.37,0,12.578,4.918,13.288,12.957Z" transform="translate(0 19.698)" fill="#3b3835"/>
  </g>
</svg>
