<svg xmlns="http://www.w3.org/2000/svg" xmlns:xlink="http://www.w3.org/1999/xlink" width="136" height="136" viewBox="0 0 136 136">
  <defs>
    <clipPath id="clip-icon-menu-instagram">
      <rect width="136" height="136"/>
    </clipPath>
  </defs>
  <g id="icon-menu-instagram" clip-path="url(#clip-icon-menu-instagram)">
    <rect width="136" height="136" fill="rgba(255,255,255,0)"/>
    <path id="Icon_awesome-instagram" data-name="Icon awesome-instagram" d="M60.283,31.6a30.9,30.9,0,1,0,30.9,30.9A30.852,30.852,0,0,0,60.283,31.6Zm0,50.99A20.09,20.09,0,1,1,80.373,62.5a20.126,20.126,0,0,1-20.09,20.09ZM99.656,30.335a7.207,7.207,0,1,1-7.207-7.207A7.191,7.191,0,0,1,99.656,30.335Zm20.466,7.315c-.457-9.655-2.662-18.207-9.735-25.253-7.046-7.046-15.6-9.251-25.253-9.735-9.951-.565-39.776-.565-49.726,0-9.628.457-18.18,2.662-25.253,9.709S.9,27.968.418,37.623c-.565,9.951-.565,39.776,0,49.726C.875,97,3.081,105.556,10.154,112.6s15.6,9.251,25.253,9.735c9.951.565,39.776.565,49.726,0,9.655-.457,18.207-2.662,25.253-9.735,7.046-7.046,9.251-15.6,9.735-25.253.565-9.951.565-39.749,0-49.7ZM107.267,98.026A20.339,20.339,0,0,1,95.81,109.483c-7.934,3.147-26.759,2.42-35.526,2.42s-27.62.7-35.526-2.42A20.339,20.339,0,0,1,13.3,98.026c-3.147-7.934-2.42-26.759-2.42-35.526s-.7-27.62,2.42-35.526A20.339,20.339,0,0,1,24.757,15.516c7.934-3.147,26.759-2.42,35.526-2.42s27.62-.7,35.526,2.42a20.339,20.339,0,0,1,11.457,11.457c3.147,7.934,2.42,26.759,2.42,35.526S110.413,90.119,107.267,98.026Z" transform="translate(8.004 5.762)" fill="#3b3835"/>
  </g>
</svg>
