<svg xmlns="http://www.w3.org/2000/svg" xmlns:xlink="http://www.w3.org/1999/xlink" width="136" height="136" viewBox="0 0 136 136">
  <defs>
    <clipPath id="clip-icon-menu-dribbble">
      <rect width="136" height="136"/>
    </clipPath>
  </defs>
  <g id="icon-menu-dribbble" clip-path="url(#clip-icon-menu-dribbble)">
    <rect width="136" height="136" fill="rgba(255,255,255,0)"/>
    <path id="Icon_awesome-dribbble" data-name="Icon awesome-dribbble" d="M57.935.563a57.373,57.373,0,1,0,57.373,57.373A57.438,57.438,0,0,0,57.935.563ZM95.869,27.02a48.772,48.772,0,0,1,11.066,30.527c-1.616-.342-17.818-3.628-34.124-1.577-1.331-3.248-2.587-6.106-4.307-9.627C86.624,38.945,94.836,28.418,95.869,27.02Zm-5.448-5.667c-.881,1.255-8.258,11.171-25.684,17.7A261.581,261.581,0,0,0,46.452,10.367,48.879,48.879,0,0,1,90.421,21.353ZM37.1,13.661A312.688,312.688,0,0,1,55.27,42a182.79,182.79,0,0,1-45.3,5.971A49.185,49.185,0,0,1,37.1,13.661ZM8.93,58.01c0-.5.01-1,.025-1.5,2.144.044,25.892.35,50.365-6.974,1.4,2.746,2.743,5.533,3.973,8.317C45.572,62.846,29.472,77.179,21.528,90.777A48.809,48.809,0,0,1,8.93,58.01Zm18.925,38.66C32.975,86.206,46.867,72.7,66.624,65.958a203.7,203.7,0,0,1,10.454,37.162,48.906,48.906,0,0,1-49.222-6.45Zm57.461,1.964a211.51,211.51,0,0,0-9.52-34.94,71.929,71.929,0,0,1,30.525,2.095,49.091,49.091,0,0,1-21,32.846Z" transform="translate(10.438 10.438)" fill="#3b3835"/>
  </g>
</svg>
