<svg xmlns="http://www.w3.org/2000/svg" xmlns:xlink="http://www.w3.org/1999/xlink" width="150" height="150" viewBox="0 0 150 150">
  <defs>
    <clipPath id="clip-icon-contact-whatsapp">
      <rect width="150" height="150"/>
    </clipPath>
  </defs>
  <g id="icon-contact-whatsapp" clip-path="url(#clip-icon-contact-whatsapp)">
    <rect width="150" height="150" fill="rgba(255,255,255,0)"/>
    <path id="Icon_ionic-logo-whatsapp" data-name="Icon ionic-logo-whatsapp" d="M63.338,2.25C30.8,2.25,4.429,28.42,4.429,60.7a57.851,57.851,0,0,0,8.453,30.184L2.25,122.25l32.615-10.361a59.03,59.03,0,0,0,28.473,7.271c32.537,0,58.912-26.174,58.912-58.455S95.875,2.25,63.338,2.25ZM92.631,82.9c-1.386,3.436-7.654,6.571-10.419,6.716s-2.841,2.141-17.9-4.4S40.187,62.76,39.473,61.735s-5.834-8.316-5.558-15.658A16.692,16.692,0,0,1,39.648,33.83a5.769,5.769,0,0,1,4.08-1.718c1.186-.019,1.954-.035,2.832,0s2.194-.183,3.335,2.85,3.869,10.487,4.218,11.247a2.729,2.729,0,0,1,.027,2.617,10.23,10.23,0,0,1-1.6,2.433c-.786.843-1.654,1.886-2.355,2.531-.782.714-1.6,1.492-.777,3.018a45.079,45.079,0,0,0,7.977,10.644A41.1,41.1,0,0,0,69.2,75.3c1.477.8,2.359.715,3.275-.249s3.921-4.218,4.981-5.67,2.052-1.171,3.413-.624S89.483,73.194,90.96,74s2.462,1.213,2.815,1.848S94.017,79.468,92.631,82.9Z" transform="translate(12.75 12.75)" fill="#303030"/>
  </g>
</svg>
