<svg xmlns="http://www.w3.org/2000/svg" xmlns:xlink="http://www.w3.org/1999/xlink" width="180" height="180" viewBox="0 0 180 180">
  <defs>
    <clipPath id="clip-icon-av">
      <rect width="180" height="180"/>
    </clipPath>
  </defs>
  <g id="icon-av" clip-path="url(#clip-icon-av)">
    <rect width="180" height="180" fill="rgba(255,255,255,0)"/>
    <g id="Grupo_450" data-name="Grupo 450" transform="translate(0.127)">
      <ellipse id="Elipse_44" data-name="Elipse 44" cx="90.038" cy="90.038" rx="90.038" ry="90.038" transform="translate(0)" fill="#52c6ba"/>
      <g id="video_1_" data-name="video (1)" transform="translate(47.332 45.534)" style="isolation: isolate">
        <path id="Trazado_6361" data-name="Trazado 6361" d="M3.421,89.092H85.829a1.42,1.42,0,0,0,1.421-1.421V2.421A1.42,1.42,0,0,0,85.829,1H3.421A1.42,1.42,0,0,0,2,2.421v85.25A1.42,1.42,0,0,0,3.421,89.092ZM4.842,3.842H84.408V86.25H4.842Z" transform="translate(-2 -1)" fill="#fff"/>
        <path id="Trazado_6362" data-name="Trazado 6362" d="M13.1,5H7.421A1.42,1.42,0,0,0,6,6.421V12.1a1.42,1.42,0,0,0,1.421,1.421H13.1A1.42,1.42,0,0,0,14.525,12.1V6.421A1.42,1.42,0,0,0,13.1,5Zm-1.421,5.683H8.842V7.842h2.842Z" transform="translate(-0.317 0.683)" fill="#fff"/>
        <path id="Trazado_6363" data-name="Trazado 6363" d="M13.1,13H7.421A1.42,1.42,0,0,0,6,14.421V20.1a1.42,1.42,0,0,0,1.421,1.421H13.1A1.42,1.42,0,0,0,14.525,20.1V14.421A1.42,1.42,0,0,0,13.1,13Zm-1.421,5.683H8.842V15.842h2.842Z" transform="translate(-0.317 4.05)" fill="#fff"/>
        <path id="Trazado_6364" data-name="Trazado 6364" d="M13.1,21H7.421A1.42,1.42,0,0,0,6,22.421V28.1a1.42,1.42,0,0,0,1.421,1.421H13.1A1.42,1.42,0,0,0,14.525,28.1V22.421A1.42,1.42,0,0,0,13.1,21Zm-1.421,5.683H8.842V23.842h2.842Z" transform="translate(-0.317 7.417)" fill="#fff"/>
        <path id="Trazado_6365" data-name="Trazado 6365" d="M13.1,29H7.421A1.42,1.42,0,0,0,6,30.421V36.1a1.42,1.42,0,0,0,1.421,1.421H13.1A1.42,1.42,0,0,0,14.525,36.1V30.421A1.42,1.42,0,0,0,13.1,29Zm-1.421,5.683H8.842V31.842h2.842Z" transform="translate(-0.317 10.783)" fill="#fff"/>
        <path id="Trazado_6366" data-name="Trazado 6366" d="M13.1,37H7.421A1.42,1.42,0,0,0,6,38.421V44.1a1.42,1.42,0,0,0,1.421,1.421H13.1A1.42,1.42,0,0,0,14.525,44.1V38.421A1.42,1.42,0,0,0,13.1,37Zm-1.421,5.683H8.842V39.842h2.842Z" transform="translate(-0.317 14.15)" fill="#fff"/>
        <path id="Trazado_6367" data-name="Trazado 6367" d="M13.1,45H7.421A1.42,1.42,0,0,0,6,46.421V52.1a1.42,1.42,0,0,0,1.421,1.421H13.1A1.42,1.42,0,0,0,14.525,52.1V46.421A1.42,1.42,0,0,0,13.1,45Zm-1.421,5.683H8.842V47.842h2.842Z" transform="translate(-0.317 17.517)" fill="#fff"/>
        <path id="Trazado_6368" data-name="Trazado 6368" d="M13.1,53H7.421A1.42,1.42,0,0,0,6,54.421V60.1a1.42,1.42,0,0,0,1.421,1.421H13.1A1.42,1.42,0,0,0,14.525,60.1V54.421A1.42,1.42,0,0,0,13.1,53Zm-1.421,5.683H8.842V55.842h2.842Z" transform="translate(-0.317 20.883)" fill="#fff"/>
        <path id="Trazado_6369" data-name="Trazado 6369" d="M59.1,5H53.421A1.42,1.42,0,0,0,52,6.421V12.1a1.42,1.42,0,0,0,1.421,1.421H59.1A1.42,1.42,0,0,0,60.525,12.1V6.421A1.42,1.42,0,0,0,59.1,5Zm-1.421,5.683H54.842V7.842h2.842Z" transform="translate(19.042 0.683)" fill="#fff"/>
        <path id="Trazado_6370" data-name="Trazado 6370" d="M59.1,13H53.421A1.42,1.42,0,0,0,52,14.421V20.1a1.42,1.42,0,0,0,1.421,1.421H59.1A1.42,1.42,0,0,0,60.525,20.1V14.421A1.42,1.42,0,0,0,59.1,13Zm-1.421,5.683H54.842V15.842h2.842Z" transform="translate(19.042 4.05)" fill="#fff"/>
        <path id="Trazado_6371" data-name="Trazado 6371" d="M59.1,21H53.421A1.42,1.42,0,0,0,52,22.421V28.1a1.42,1.42,0,0,0,1.421,1.421H59.1A1.42,1.42,0,0,0,60.525,28.1V22.421A1.42,1.42,0,0,0,59.1,21Zm-1.421,5.683H54.842V23.842h2.842Z" transform="translate(19.042 7.417)" fill="#fff"/>
        <path id="Trazado_6372" data-name="Trazado 6372" d="M59.1,29H53.421A1.42,1.42,0,0,0,52,30.421V36.1a1.42,1.42,0,0,0,1.421,1.421H59.1A1.42,1.42,0,0,0,60.525,36.1V30.421A1.42,1.42,0,0,0,59.1,29Zm-1.421,5.683H54.842V31.842h2.842Z" transform="translate(19.042 10.783)" fill="#fff"/>
        <path id="Trazado_6373" data-name="Trazado 6373" d="M59.1,37H53.421A1.42,1.42,0,0,0,52,38.421V44.1a1.42,1.42,0,0,0,1.421,1.421H59.1A1.42,1.42,0,0,0,60.525,44.1V38.421A1.42,1.42,0,0,0,59.1,37Zm-1.421,5.683H54.842V39.842h2.842Z" transform="translate(19.042 14.15)" fill="#fff"/>
        <path id="Trazado_6374" data-name="Trazado 6374" d="M59.1,45H53.421A1.42,1.42,0,0,0,52,46.421V52.1a1.42,1.42,0,0,0,1.421,1.421H59.1A1.42,1.42,0,0,0,60.525,52.1V46.421A1.42,1.42,0,0,0,59.1,45Zm-1.421,5.683H54.842V47.842h2.842Z" transform="translate(19.042 17.517)" fill="#fff"/>
        <path id="Trazado_6375" data-name="Trazado 6375" d="M59.1,53H53.421A1.42,1.42,0,0,0,52,54.421V60.1a1.42,1.42,0,0,0,1.421,1.421H59.1A1.42,1.42,0,0,0,60.525,60.1V54.421A1.42,1.42,0,0,0,59.1,53Zm-1.421,5.683H54.842V55.842h2.842Z" transform="translate(19.042 20.883)" fill="#fff"/>
        <path id="Trazado_6376" data-name="Trazado 6376" d="M52.521,20H24.1A7.112,7.112,0,0,0,17,27.1V47a7.112,7.112,0,0,0,7.1,7.1H52.521a7.112,7.112,0,0,0,7.1-7.1V27.1A7.112,7.112,0,0,0,52.521,20Zm4.263,27a4.268,4.268,0,0,1-4.263,4.262H24.1A4.268,4.268,0,0,1,19.842,47V27.1A4.268,4.268,0,0,1,24.1,22.842H52.521A4.268,4.268,0,0,1,56.783,27.1Z" transform="translate(4.312 6.996)" fill="#fff"/>
        <path id="Trazado_6377" data-name="Trazado 6377" d="M43.638,33.232l-15.629-7.1A1.42,1.42,0,0,0,26,27.421V41.629a1.421,1.421,0,0,0,1.421,1.421,1.4,1.4,0,0,0,.588-.128l15.629-7.1a1.42,1.42,0,0,0,0-2.586Zm-14.8,6.191v-9.8l10.774,4.9Z" transform="translate(8.1 9.521)" fill="#fff"/>
      </g>
    </g>
  </g>
</svg>
