<svg xmlns="http://www.w3.org/2000/svg" xmlns:xlink="http://www.w3.org/1999/xlink" width="180" height="180" viewBox="0 0 180 180">
  <defs>
    <clipPath id="clip-icon-gd">
      <rect width="180" height="180"/>
    </clipPath>
  </defs>
  <g id="icon-gd" clip-path="url(#clip-icon-gd)">
    <rect width="180" height="180" fill="rgba(255,255,255,0)"/>
    <g id="Grupo_451" data-name="Grupo 451" transform="translate(0 0)">
      <ellipse id="Elipse_45" data-name="Elipse 45" cx="90.038" cy="90.038" rx="90.038" ry="90.038" transform="translate(0)" fill="#ffc852"/>
      <g id="ribbon-design" transform="translate(40.794 40.794)" style="isolation: isolate">
        <path id="Trazado_6380" data-name="Trazado 6380" d="M207.194,213.137,193.03,192.679a1.574,1.574,0,0,0-2.589,0l-14.164,20.458a1.572,1.572,0,0,0-.2,1.393l4.031,12.092h-.964a1.574,1.574,0,0,0-1.574,1.574v4.721a1.574,1.574,0,0,0,1.574,1.574h1.574V251.8a1.574,1.574,0,0,0,1.574,1.574h18.885a1.574,1.574,0,0,0,1.574-1.574V234.491h1.574a1.574,1.574,0,0,0,1.574-1.574V228.2a1.574,1.574,0,0,0-1.574-1.574h-.964l4.031-12.092A1.572,1.572,0,0,0,207.194,213.137Zm-15.458-2.252a1.574,1.574,0,1,1-1.574,1.574A1.574,1.574,0,0,1,191.736,210.885Zm7.869,39.343H183.867V234.491H199.6Zm3.147-18.885H180.72V229.77h22.032Zm-2.709-4.721H183.429l-4.115-12.34,10.849-15.67v9.126a1.666,1.666,0,0,0,.024.264,4.721,4.721,0,1,0,3.1,0,1.658,1.658,0,0,0,.024-.264v-9.126l10.849,15.67Z" transform="translate(-142.95 -155.804)" fill="#1e1e1e"/>
        <path id="Trazado_6381" data-name="Trazado 6381" d="M104,25.311H97.7a1.574,1.574,0,0,0-1.574,1.574v1.588a1.624,1.624,0,0,0-.2-.014H61.507V26.885a1.574,1.574,0,0,0-1.574-1.574H58.359V17.442h1.574a1.574,1.574,0,0,0,1.574-1.574V9.574A1.574,1.574,0,0,0,59.933,8H53.638a1.574,1.574,0,0,0-1.574,1.574v6.295a1.574,1.574,0,0,0,1.574,1.574h1.574v7.869H53.638a1.574,1.574,0,0,0-1.574,1.574v1.574H17.442V26.885a1.574,1.574,0,0,0-1.574-1.574H9.574A1.574,1.574,0,0,0,8,26.885V33.18a1.574,1.574,0,0,0,1.574,1.574h6.295a1.574,1.574,0,0,0,1.574-1.574V31.606H43.46a24.617,24.617,0,0,0-5.506,4.987,27.364,27.364,0,0,0-6.348,17.045H30.032a1.574,1.574,0,0,0-1.574,1.574v6.295a1.574,1.574,0,0,0,1.574,1.574h6.295A1.574,1.574,0,0,0,37.9,61.507V55.212a1.574,1.574,0,0,0-1.574-1.574H34.753c0-11.669,8.978-20.874,17.311-21.93V33.18a1.574,1.574,0,0,0,1.574,1.574h6.295a1.574,1.574,0,0,0,1.574-1.574V31.7c4.261.506,8.351,3.059,11.651,7.318a27.624,27.624,0,0,1,5.6,14.618H77.244a1.574,1.574,0,0,0-1.574,1.574v6.295a1.574,1.574,0,0,0,1.574,1.574h6.295a1.574,1.574,0,0,0,1.574-1.574V55.212a1.574,1.574,0,0,0-1.574-1.574H81.916A30.385,30.385,0,0,0,75.647,37.09a24.863,24.863,0,0,0-5.783-5.484H95.932a1.626,1.626,0,0,0,.2-.014V33.18A1.574,1.574,0,0,0,97.7,34.753H104a1.574,1.574,0,0,0,1.574-1.574V26.885A1.574,1.574,0,0,0,104,25.311Zm-89.7,6.295H11.147V28.458h3.147ZM34.753,59.933H31.606V56.786h3.147ZM55.212,11.147h3.147v3.147H55.212Zm3.147,20.458H55.212V28.458h3.147Zm20.458,25.18h3.147v3.147H78.818Zm23.606-25.18H99.276V28.458h3.147Z" transform="translate(-8 -8)" fill="#1e1e1e"/>
      </g>
    </g>
  </g>
</svg>
