<svg xmlns="http://www.w3.org/2000/svg" xmlns:xlink="http://www.w3.org/1999/xlink" width="180" height="180" viewBox="0 0 180 180">
  <defs>
    <clipPath id="clip-icon-wd">
      <rect width="180" height="180"/>
    </clipPath>
  </defs>
  <g id="icon-wd" clip-path="url(#clip-icon-wd)">
    <rect width="180" height="180" fill="rgba(255,255,255,0)"/>
    <g id="Grupo_453" data-name="Grupo 453" transform="translate(0 0)">
      <ellipse id="Elipse_46" data-name="Elipse 46" cx="90.038" cy="90.038" rx="90.038" ry="90.038" fill="#f4844d"/>
      <g id="Grupo_427" data-name="Grupo 427" transform="translate(37.239 47.345)" style="isolation: isolate">
        <path id="Trazado_6383" data-name="Trazado 6383" d="M12.051,137.191A9.061,9.061,0,0,1,3,128.14V61.773a9.061,9.061,0,0,1,9.051-9.051H99.079a9.061,9.061,0,0,1,9.051,9.051V128.14a9.061,9.061,0,0,1-9.051,9.051ZM33.645,107.6a4.1,4.1,0,0,1,4.091,4.091v22.594H45.2v-13.02a4.794,4.794,0,0,1,2.638-4.289l.515-.262-5.89-14.133a6.387,6.387,0,0,1,1.552-7.122c2.846-2.632,7.966-7.794,10.273-12.794a1.456,1.456,0,0,1,2.641,0c2.309,5.005,7.4,10.171,10.229,12.806a6.394,6.394,0,0,1,1.543,7.088l-5.854,14.18.5.264a4.8,4.8,0,0,1,2.589,4.264v13.02H73V117.12a3.912,3.912,0,0,1,1.713-3.232l.272-.185v-2.661a4.182,4.182,0,0,1,2.969-3.981l.445-.133v-5.559a1.454,1.454,0,0,1,2.909,0v5.559l.445.133a4.181,4.181,0,0,1,2.969,3.981V113.7l.272.185a3.911,3.911,0,0,1,1.713,3.232v17.162h12.37a6.149,6.149,0,0,0,6.142-6.142V79.334H5.909V128.14a6.149,6.149,0,0,0,6.142,6.142H22V111.688A4.1,4.1,0,0,1,26.09,107.6Zm43.264,8.523a1,1,0,0,0-1,1v17.162H83.8V117.12a1,1,0,0,0-1-1Zm-26.9,3.241a1.9,1.9,0,0,0-1.9,1.9v13.02H63.026v-13.02a1.9,1.9,0,0,0-1.9-1.9Zm-25.1,14.921h9.919V111.688a1.183,1.183,0,0,0-1.182-1.182H26.09a1.183,1.183,0,0,0-1.182,1.182v3.164h3.578a1.454,1.454,0,1,1,0,2.909H24.908v3.83h3.578a1.454,1.454,0,1,1,0,2.909H24.908v3.83h3.578a1.454,1.454,0,0,1,0,2.909H24.908Zm30.657-30.269a1.456,1.456,0,0,1,1.454,1.454v10.985H59.81l6.2-15.008a3.472,3.472,0,0,0-.837-3.848,58.7,58.7,0,0,1-9.045-10.4l-.523-.811-.524.811a58.379,58.379,0,0,1-9.093,10.4,3.47,3.47,0,0,0-.841,3.868l6.249,14.993h2.719V105.467A1.456,1.456,0,0,1,55.565,104.013ZM79.141,109.8a1.247,1.247,0,0,0-1.246,1.246v2.169h3.92v-2.169a1.247,1.247,0,0,0-1.246-1.246ZM12.051,55.631a6.149,6.149,0,0,0-6.142,6.142V76.425h99.313V61.773a6.149,6.149,0,0,0-6.142-6.142Z" transform="translate(-3 -52.722)" fill="#1e1e1e"/>
        <path id="Trazado_6384" data-name="Trazado 6384" d="M49.476,103.9a5.661,5.661,0,1,1,5.661-5.661A5.667,5.667,0,0,1,49.476,103.9Zm0-8.412a2.752,2.752,0,1,0,2.752,2.752A2.755,2.755,0,0,0,49.476,95.489Z" transform="translate(-35.335 -84.299)" fill="#1e1e1e"/>
        <path id="Trazado_6385" data-name="Trazado 6385" d="M130.977,103.9a5.661,5.661,0,1,1,5.661-5.661A5.667,5.667,0,0,1,130.977,103.9Zm0-8.412a2.752,2.752,0,1,0,2.752,2.752A2.755,2.755,0,0,0,130.977,95.489Z" transform="translate(-99.903 -84.299)" fill="#1e1e1e"/>
        <path id="Trazado_6386" data-name="Trazado 6386" d="M212.477,103.9a5.661,5.661,0,1,1,5.661-5.661A5.667,5.667,0,0,1,212.477,103.9Zm0-8.412a2.752,2.752,0,1,0,2.752,2.752A2.755,2.755,0,0,0,212.477,95.489Z" transform="translate(-164.47 -84.299)" fill="#1e1e1e"/>
        <path id="Trazado_6387" data-name="Trazado 6387" d="M250.456,269.684a1.455,1.455,0,0,1-.281-2.882,1.429,1.429,0,0,1,.282-.028,1.455,1.455,0,0,1,0,2.91Z" transform="translate(-197.891 -222.301)" fill="#1e1e1e"/>
      </g>
    </g>
  </g>
</svg>
