<svg xmlns="http://www.w3.org/2000/svg" xmlns:xlink="http://www.w3.org/1999/xlink" width="180" height="180" viewBox="0 0 180 180">
  <defs>
    <clipPath id="clip-icon-ui">
      <rect width="180" height="180"/>
    </clipPath>
  </defs>
  <g id="icon-ui" clip-path="url(#clip-icon-ui)">
    <rect width="180" height="180" fill="rgba(255,255,255,0)"/>
    <g id="Grupo_452" data-name="Grupo 452" transform="translate(0 0)">
      <ellipse id="Elipse_47" data-name="Elipse 47" cx="90.038" cy="90.038" rx="90.038" ry="90.038" transform="translate(0)" fill="#2958a3"/>
      <path id="Trazado_6540" data-name="Trazado 6540" d="M52.685,101.369a2.125,2.125,0,0,1-1.128-.324L5,71.873a2.125,2.125,0,0,1,0-3.6l11.05-6.906L5,54.489a2.125,2.125,0,0,1,0-3.606l11.049-6.906L5,37.1A2.125,2.125,0,0,1,5,33.5L51.556,4.324a2.125,2.125,0,0,1,2.257,0L100.372,33.5a2.125,2.125,0,0,1-.005,3.6L89.244,44.024l11.115,6.851a2.125,2.125,0,0,1,.008,3.613L89.244,61.411l11.115,6.852a2.125,2.125,0,0,1,.013,3.61L53.813,101.045A2.123,2.123,0,0,1,52.685,101.369ZM10.131,70.074,52.685,96.736l42.533-26.65-10-6.167L53.807,83.468a2.124,2.124,0,0,1-2.245,0l-31.5-19.6Zm.01-17.393L52.685,79.161,95.208,52.693l-9.993-6.16L53.807,66.081a2.125,2.125,0,0,1-2.245,0l-31.5-19.6Zm0-17.39L52.685,61.773,95.232,35.292,52.685,8.633Z" transform="translate(36.895 36.895)" fill="#fff"/>
    </g>
  </g>
</svg>
