<svg xmlns="http://www.w3.org/2000/svg" xmlns:xlink="http://www.w3.org/1999/xlink" width="2720" height="1530" viewBox="0 0 2720 1530">
  <defs>
    <clipPath id="clip-path">
      <rect id="Rectángulo_588" data-name="Rectángulo 588" width="2720" height="1530" transform="translate(0 -0.266)" fill="#fff" stroke="#707070" stroke-width="1"/>
    </clipPath>
    <clipPath id="clip-bg-hero">
      <rect width="2720" height="1530"/>
    </clipPath>
  </defs>
  <g id="bg-hero" clip-path="url(#clip-bg-hero)">
    <rect width="2720" height="1530" fill="rgba(255,255,255,0)"/>
    <g id="Enmascarar_grupo_6" data-name="Enmascarar grupo 6" transform="translate(0 0.266)" clip-path="url(#clip-path)">
      <g id="Grupo_467" data-name="Grupo 467" transform="translate(-351.316 -24.124)">
        <g id="Grupo_465" data-name="Grupo 465">
          <path id="Trazado_6545" data-name="Trazado 6545" d="M1148.222,574.973a11.158,11.158,0,0,0,.982,2.222c1.552,2.515,4.013,4.085,6.394,5.565,66.516,41.183,145.135,88.214,223.438,74.444,75.133-13.215,146.807-70.259,197.457-131.539,45.531-55.09,58.121-107.751,9.51-164.906-36.613-43.057-69.416-94.339-112.044-132.029-50.474-44.632-102.7-49.167-164.821-43.2-40.094,3.853-80.044,12.3-120.417,11.3-6.957.7-25.016,16.961-26.968,22.667-7.76,22.652-12.224,46.288-15.867,70.168-3.021,19.819-6.218,40.577-6.534,60.76-.388,24.813,2.872,49.606,3.4,74.4.712,33.539,1.348,67.017,2.192,100.535C1145.174,534.461,1144.741,564.531,1148.222,574.973Z" transform="translate(-835.772 883.314)" fill="#2958a3"/>
          <path id="Trazado_6546" data-name="Trazado 6546" d="M1329.326,441.765c-24.323.036-61.86-4.432-83.856,6.422-3.971,1.957-7.315,6.646-10.635,9.567-14.781,12.99-29.208,25.361-45.482,36.843-55.531,39.186-121.733,58.357-177.135,97.654-30.74,21.806-61.357,44.064-90.815,67.592-20.573,16.433-33.849,29.8-33.6,56.782.335,35.845,14.105,71.572,17.789,107.438,2.343,22.813,4.324,46.875,7.894,68.859l432.395,3.211c-.534,0-9.6,3.211-10.137,3.211Z" transform="translate(2296.74 577.567)" fill="#f4844d"/>
          <path id="Trazado_6547" data-name="Trazado 6547" d="M1037.221,154.485c-47.969,34.342-85.453,92.168-60.851,151.473,12.559,30.288,31.979,60.214,60.334,77.826,34.08,21.172,75.558,12.994,113.038,6.8,29.07-4.808,58.29-9.654,86.193-19.119,31.885-10.816,49.738-31.484,50.431-65.706.908-44.594-3.465-90.446-15.4-133.543-7.739-27.942-61.6-32.164-84.515-37.149-36.072-7.855-73.957-12.086-109.844-.947C1063.635,138.147,1050.137,145.236,1037.221,154.485Z" transform="translate(224.854 990.378)" fill="#ffc852"/>
          <g id="Grupo_459" data-name="Grupo 459" transform="translate(2693.59 1082.806)">
            <g id="Grupo_457" data-name="Grupo 457" transform="translate(128.008 114.243)">
              <path id="Trazado_6548" data-name="Trazado 6548" d="M985.832,231.551c8.842.966,11.587-5.126,11.914-13.736.327-8.567-3.827-10.259-11.632-9.032-5.757.908-8.7,3.95-8.051,9.722.29,2.534.342,6.113,1.749,8.052C981.069,228.284,983.414,228.654,985.832,231.551Z" transform="translate(-977.974 -208.427)" fill="#1e1e1e"/>
            </g>
            <path id="Trazado_6549" data-name="Trazado 6549" d="M973.3,223.027c-7.471,4.828-5.758,11.29-.581,18.18,5.147,6.854,9.438,5.554,14.716-.327,3.9-4.342,4.269-8.56.117-12.625-1.815-1.786-4.116-4.523-6.426-5.14C979.06,222.563,977.006,223.753,973.3,223.027Z" transform="translate(-910.773 -3.184)" fill="#1e1e1e"/>
            <path id="Trazado_6550" data-name="Trazado 6550" d="M966.727,227.348c6,1.721,14.267,8.451,17.962,1.343,2.215-4.262,1.779-6.818-2.642-9.17-3.239-1.714-10.339-4.915-14.042-3.928C966.981,219.405,966.241,221.416,966.727,227.348Z" transform="translate(-921.331 -50.478)" fill="#1e1e1e"/>
            <path id="Trazado_6551" data-name="Trazado 6551" d="M997.927,220.191c6,1.713,14.273,8.444,17.969,1.343,2.215-4.262,1.779-6.824-2.642-9.17-3.238-1.713-10.339-4.922-14.041-3.928C998.188,212.248,997.448,214.252,997.927,220.191Z" transform="translate(-725.99 -95.297)" fill="#1e1e1e"/>
            <path id="Trazado_6552" data-name="Trazado 6552" d="M985.894,234.109c6,1.721,14.266,8.451,17.962,1.343,2.214-4.262,1.786-6.818-2.643-9.17-3.231-1.713-10.332-4.915-14.041-3.921C986.148,226.166,985.407,228.177,985.894,234.109Z" transform="translate(-801.341 -8.123)" fill="#1e1e1e"/>
            <path id="Trazado_6553" data-name="Trazado 6553" d="M981.095,236.313c6,1.721,14.266,8.451,17.962,1.343,2.214-4.262,1.779-6.817-2.642-9.17-3.238-1.714-10.339-4.923-14.042-3.928C981.349,228.37,980.608,230.374,981.095,236.313Z" transform="translate(-831.383 5.631)" fill="#1e1e1e"/>
            <path id="Trazado_6554" data-name="Trazado 6554" d="M999.214,225.661c-4.828-7.471-11.29-5.757-18.179-.581-6.854,5.148-5.547,9.438.327,14.716,4.341,3.9,8.56,4.269,12.625.116,1.786-1.822,4.53-4.117,5.14-6.425C999.678,231.418,998.488,229.364,999.214,225.661Z" transform="translate(-859.783 -17.862)" fill="#1e1e1e"/>
            <path id="Trazado_6555" data-name="Trazado 6555" d="M983.884,221.423c-4.828-7.471-11.289-5.757-18.172-.581-6.861,5.147-5.554,9.438.327,14.717,4.334,3.9,8.552,4.269,12.619.116,1.786-1.815,4.53-4.117,5.147-6.425C984.349,227.18,983.165,225.126,983.884,221.423Z" transform="translate(-955.738 -44.393)" fill="#1e1e1e"/>
            <path id="Trazado_6556" data-name="Trazado 6556" d="M1028.184,215.118c-4.829-7.471-11.29-5.757-18.18-.588-6.854,5.155-5.546,9.445.327,14.724,4.342,3.9,8.56,4.262,12.626.116,1.786-1.822,4.53-4.117,5.14-6.433C1028.649,220.875,1027.458,218.82,1028.184,215.118Z" transform="translate(-678.424 -83.871)" fill="#1e1e1e"/>
            <path id="Trazado_6557" data-name="Trazado 6557" d="M1005.137,219.086c-4.828-7.471-11.29-5.757-18.18-.588-6.854,5.155-5.547,9.446.327,14.724,4.341,3.9,8.56,4.262,12.625.116,1.786-1.822,4.531-4.117,5.147-6.433C1005.6,224.843,1004.411,222.788,1005.137,219.086Z" transform="translate(-822.704 -59.03)" fill="#1e1e1e"/>
            <path id="Trazado_6558" data-name="Trazado 6558" d="M1011.912,214.186c-4.828-7.471-11.29-5.757-18.172-.581-6.861,5.147-5.554,9.438.327,14.717,4.334,3.9,8.553,4.269,12.618.116,1.787-1.822,4.531-4.117,5.148-6.425C1012.376,219.943,1011.193,217.889,1011.912,214.186Z" transform="translate(-780.276 -89.699)" fill="#1e1e1e"/>
            <path id="Trazado_6559" data-name="Trazado 6559" d="M978.944,219.448c-4.763,3.332-12.1,11.718-2.868,14.324,4.581,1.3,12.829-2.331,14.963-6.6C994.234,220.813,984.352,216.835,978.944,219.448Z" transform="translate(-889.536 -30.28)" fill="#1e1e1e"/>
            <path id="Trazado_6560" data-name="Trazado 6560" d="M999,227.7c-4.763,3.34-12.1,11.725-2.868,14.332,4.574,1.292,12.822-2.331,14.964-6.6C1014.28,229.062,1004.407,225.091,999,227.7Z" transform="translate(-763.994 21.376)" fill="#1e1e1e"/>
            <path id="Trazado_6561" data-name="Trazado 6561" d="M1019.128,203.96c-4.763,3.332-12.1,11.725-2.868,14.332,4.574,1.292,12.822-2.331,14.963-6.6C1034.41,205.325,1024.536,201.354,1019.128,203.96Z" transform="translate(-637.996 -127.223)" fill="#1e1e1e"/>
            <path id="Trazado_6562" data-name="Trazado 6562" d="M992.03,206.895c-4.762,3.332-12.1,11.718-2.868,14.332,4.574,1.292,12.822-2.331,14.963-6.6C1007.312,208.26,997.439,204.289,992.03,206.895Z" transform="translate(-807.636 -108.849)" fill="#1e1e1e"/>
            <path id="Trazado_6563" data-name="Trazado 6563" d="M967.636,226.051c-4.763,3.332-12.1,11.718-2.867,14.332,4.574,1.292,12.822-2.338,14.963-6.6C982.919,227.416,973.046,223.438,967.636,226.051Z" transform="translate(-960.342 11.057)" fill="#1e1e1e"/>
            <path id="Trazado_6564" data-name="Trazado 6564" d="M1011.439,204.97c-4.763,3.332-12.1,11.718-2.868,14.332,4.574,1.292,12.822-2.338,14.963-6.6C1026.721,206.335,1016.847,202.364,1011.439,204.97Z" transform="translate(-686.11 -120.9)" fill="#1e1e1e"/>
            <path id="Trazado_6565" data-name="Trazado 6565" d="M993.4,199.9c-4.762,3.332-12.1,11.725-2.868,14.332,4.573,1.292,12.822-2.331,14.963-6.6C1008.681,201.264,998.807,197.293,993.4,199.9Z" transform="translate(-799.066 -152.646)" fill="#1e1e1e"/>
            <path id="Trazado_6566" data-name="Trazado 6566" d="M974.368,209.35c-1.721,6-8.451,14.266-1.343,17.962,4.262,2.214,6.818,1.786,9.163-2.643,1.721-3.238,4.922-10.339,3.928-14.041C982.31,209.6,980.3,208.863,974.368,209.35Z" transform="translate(-900.94 -89.364)" fill="#1e1e1e"/>
            <path id="Trazado_6567" data-name="Trazado 6567" d="M997.953,213.855c-1.714,6-8.444,14.266-1.343,17.962,4.262,2.214,6.824,1.779,9.17-2.643,1.713-3.238,4.922-10.338,3.927-14.041C1005.9,214.109,1003.892,213.368,997.953,213.855Z" transform="translate(-753.256 -61.161)" fill="#1e1e1e"/>
            <path id="Trazado_6568" data-name="Trazado 6568" d="M978.417,213.451c-1.721,6-8.451,14.274-1.343,17.969,4.262,2.214,6.818,1.779,9.163-2.643,1.721-3.238,4.922-10.339,3.928-14.041C986.36,213.712,984.349,212.971,978.417,213.451Z" transform="translate(-875.586 -63.668)" fill="#1e1e1e"/>
            <path id="Trazado_6569" data-name="Trazado 6569" d="M1010.688,202.528c-5.177,3.47-15.661,5.445-12.619,12.851,1.83,4.443,4.059,5.765,8.713,3.9,3.4-1.365,10.426-4.719,12.059-8.19C1016.59,207.85,1015.538,205.984,1010.688,202.528Z" transform="translate(-727.563 -131.113)" fill="#1e1e1e"/>
            <path id="Trazado_6570" data-name="Trazado 6570" d="M992.99,217.6c-1.714,6-8.444,14.273-1.343,17.962,4.262,2.221,6.817,1.786,9.169-2.643,1.714-3.231,4.923-10.331,3.928-14.034C1000.933,217.863,998.929,217.122,992.99,217.6Z" transform="translate(-784.326 -37.682)" fill="#1e1e1e"/>
            <g id="Grupo_458" data-name="Grupo 458" transform="translate(491.127 175.964)">
              <path id="Trazado_6571" data-name="Trazado 6571" d="M1039.92,217.029c-8.835-.966-11.587,5.126-11.914,13.736-.326,8.567,3.826,10.266,11.631,9.032,5.764-.907,8.705-3.95,8.052-9.722-.284-2.534-.342-6.113-1.743-8.044C1044.69,220.3,1042.345,219.926,1039.92,217.029Z" transform="translate(-1027.989 -216.928)" fill="#1e1e1e"/>
            </g>
            <path id="Trazado_6572" data-name="Trazado 6572" d="M1054.575,225.251c7.47-4.828,5.757-11.29.588-18.18-5.155-6.854-9.446-5.554-14.724.327-3.9,4.342-4.262,8.56-.116,12.626,1.822,1.786,4.116,4.523,6.432,5.14C1048.817,225.716,1050.872,224.525,1054.575,225.251Z" transform="translate(-478.18 -131.663)" fill="#1e1e1e"/>
            <path id="Trazado_6573" data-name="Trazado 6573" d="M1058.71,215.413c-6-1.721-14.273-8.451-17.962-1.343-2.222,4.262-1.785,6.817,2.643,9.17,3.23,1.713,10.331,4.915,14.034,3.928C1058.448,223.355,1059.189,221.344,1058.71,215.413Z" transform="translate(-465.173 -78.851)" fill="#1e1e1e"/>
            <path id="Trazado_6574" data-name="Trazado 6574" d="M1027.5,222.567c-6-1.713-14.266-8.444-17.961-1.343-2.215,4.262-1.786,6.824,2.643,9.17,3.23,1.713,10.331,4.922,14.041,3.928C1027.249,230.51,1027.99,228.506,1027.5,222.567Z" transform="translate(-660.515 -34.03)" fill="#1e1e1e"/>
            <path id="Trazado_6575" data-name="Trazado 6575" d="M1039.538,208.647c-5.99-1.721-14.267-8.451-17.962-1.343-2.215,4.262-1.779,6.818,2.642,9.17,3.239,1.713,10.339,4.915,14.042,3.921C1039.283,216.59,1040.023,214.579,1039.538,208.647Z" transform="translate(-585.165 -121.202)" fill="#1e1e1e"/>
            <path id="Trazado_6576" data-name="Trazado 6576" d="M1044.342,206.45c-6-1.721-14.274-8.451-17.962-1.343-2.221,4.262-1.785,6.817,2.643,9.17,3.231,1.714,10.331,4.922,14.034,3.928C1044.08,214.392,1044.821,212.388,1044.342,206.45Z" transform="translate(-555.121 -134.962)" fill="#1e1e1e"/>
            <path id="Trazado_6577" data-name="Trazado 6577" d="M1034.6,232.286c-6-1.721-14.266-8.451-17.961-1.343-2.214,4.262-1.786,6.817,2.643,9.17,3.23,1.713,10.331,4.915,14.034,3.928C1034.344,240.229,1035.084,238.225,1034.6,232.286Z" transform="translate(-616.055 26.784)" fill="#1e1e1e"/>
            <path id="Trazado_6578" data-name="Trazado 6578" d="M1029.2,222.086c4.828,7.471,11.29,5.757,18.179.581,6.861-5.147,5.554-9.438-.327-14.716-4.334-3.9-8.56-4.269-12.626-.116-1.786,1.822-4.522,4.117-5.141,6.425C1028.732,216.328,1029.922,218.383,1029.2,222.086Z" transform="translate(-529.701 -116.453)" fill="#1e1e1e"/>
            <path id="Trazado_6579" data-name="Trazado 6579" d="M1044.524,226.324c4.828,7.471,11.29,5.757,18.18.581,6.853-5.147,5.547-9.438-.327-14.716-4.342-3.9-8.559-4.269-12.626-.116-1.785,1.815-4.53,4.116-5.14,6.425C1044.06,220.566,1045.25,222.621,1044.524,226.324Z" transform="translate(-433.744 -89.922)" fill="#1e1e1e"/>
            <path id="Trazado_6580" data-name="Trazado 6580" d="M1000.226,232.627c4.828,7.471,11.29,5.757,18.18.581,6.854-5.147,5.554-9.438-.327-14.716-4.341-3.9-8.56-4.262-12.625-.116-1.786,1.822-4.523,4.116-5.141,6.432C999.762,226.87,1000.952,228.924,1000.226,232.627Z" transform="translate(-711.061 -50.443)" fill="#1e1e1e"/>
            <path id="Trazado_6581" data-name="Trazado 6581" d="M1023.274,228.659c4.828,7.471,11.289,5.757,18.179.588,6.854-5.155,5.554-9.446-.326-14.724-4.342-3.9-8.56-4.262-12.626-.116-1.786,1.822-4.523,4.117-5.141,6.425C1022.809,222.9,1024,224.956,1023.274,228.659Z" transform="translate(-566.781 -75.283)" fill="#1e1e1e"/>
            <path id="Trazado_6582" data-name="Trazado 6582" d="M1016.5,233.561c4.828,7.471,11.29,5.757,18.18.581,6.854-5.147,5.547-9.438-.326-14.716-4.342-3.9-8.56-4.269-12.626-.116-1.787,1.815-4.53,4.116-5.141,6.425C1016.032,227.8,1017.222,229.858,1016.5,233.561Z" transform="translate(-609.207 -44.617)" fill="#1e1e1e"/>
            <path id="Trazado_6583" data-name="Trazado 6583" d="M999.049,246.6c4.828,7.464,11.29,5.757,18.18.581,6.854-5.155,5.554-9.438-.327-14.724-4.342-3.9-8.56-4.262-12.626-.116-1.785,1.822-4.523,4.117-5.14,6.433C998.584,240.833,999.775,242.887,999.049,246.6Z" transform="translate(-718.429 36.969)" fill="#1e1e1e"/>
            <path id="Trazado_6584" data-name="Trazado 6584" d="M1047,222.387c4.763-3.332,12.1-11.718,2.868-14.324-4.574-1.292-12.822,2.331-14.964,6.6C1031.713,221.022,1041.586,225,1047,222.387Z" transform="translate(-497.477 -98.125)" fill="#1e1e1e"/>
            <path id="Trazado_6585" data-name="Trazado 6585" d="M1026.941,214.135c4.763-3.332,12.1-11.718,2.868-14.324-4.574-1.292-12.822,2.33-14.963,6.6C1011.658,212.778,1021.532,216.749,1026.941,214.135Z" transform="translate(-623.021 -149.784)" fill="#1e1e1e"/>
            <path id="Trazado_6586" data-name="Trazado 6586" d="M1006.817,237.88c4.763-3.332,12.1-11.725,2.867-14.332-4.581-1.292-12.829,2.331-14.963,6.6C991.527,236.515,1001.408,240.486,1006.817,237.88Z" transform="translate(-749.015 -1.185)" fill="#1e1e1e"/>
            <path id="Trazado_6587" data-name="Trazado 6587" d="M1033.915,234.945c4.762-3.332,12.1-11.718,2.861-14.332-4.574-1.292-12.822,2.33-14.956,6.6C1018.625,233.58,1028.506,237.551,1033.915,234.945Z" transform="translate(-579.376 -19.559)" fill="#1e1e1e"/>
            <path id="Trazado_6588" data-name="Trazado 6588" d="M1014.5,236.869c4.763-3.332,12.1-11.718,2.868-14.332-4.574-1.292-12.822,2.338-14.964,6.607C999.218,235.5,1009.091,239.476,1014.5,236.869Z" transform="translate(-700.904 -7.508)" fill="#1e1e1e"/>
            <path id="Trazado_6589" data-name="Trazado 6589" d="M1048.53,235.947c1.713-6,8.443-14.266,1.343-17.962-4.261-2.214-6.824-1.779-9.169,2.643-1.714,3.238-4.922,10.339-3.927,14.041C1040.587,235.693,1042.591,236.434,1048.53,235.947Z" transform="translate(-483.025 -42.502)" fill="#1e1e1e"/>
            <path id="Trazado_6590" data-name="Trazado 6590" d="M1066.067,229.761c1.72-6,8.45-14.274,1.342-17.969-4.261-2.214-6.817-1.779-9.169,2.65-1.713,3.231-4.922,10.331-3.928,14.034C1058.124,229.5,1060.128,230.241,1066.067,229.761Z" transform="translate(-373.239 -81.272)" fill="#1e1e1e"/>
            <path id="Trazado_6591" data-name="Trazado 6591" d="M1032.131,246.919c1.721-6,8.451-14.266,1.343-17.962-4.262-2.214-6.817-1.786-9.163,2.643-1.72,3.231-4.922,10.331-3.928,14.034C1024.188,246.658,1026.2,247.406,1032.131,246.919Z" transform="translate(-585.643 26.171)" fill="#1e1e1e"/>
            <path id="Trazado_6592" data-name="Trazado 6592" d="M1024.937,231.443c1.72-6,8.451-14.266,1.343-17.962-4.262-2.214-6.818-1.779-9.17,2.643-1.714,3.238-4.915,10.339-3.928,14.041C1016.994,231.188,1019,231.929,1024.937,231.443Z" transform="translate(-630.708 -70.705)" fill="#1e1e1e"/>
            <path id="Trazado_6593" data-name="Trazado 6593" d="M1044.479,231.842c1.714-5.99,8.444-14.266,1.344-17.962-4.262-2.215-6.825-1.779-9.17,2.643-1.713,3.238-4.923,10.338-3.928,14.041C1036.537,231.588,1038.541,232.329,1044.479,231.842Z" transform="translate(-508.379 -68.201)" fill="#1e1e1e"/>
            <path id="Trazado_6594" data-name="Trazado 6594" d="M1016.379,241.176c5.184-3.47,15.66-5.445,12.618-12.851-1.823-4.443-4.058-5.765-8.705-3.9-3.4,1.365-10.433,4.719-12.066,8.19C1010.477,235.854,1011.53,237.72,1016.379,241.176Z" transform="translate(-660.579 0.84)" fill="#1e1e1e"/>
            <path id="Trazado_6595" data-name="Trazado 6595" d="M1029.9,227.7c1.721-6,8.451-14.274,1.343-17.962-4.262-2.222-6.817-1.786-9.169,2.643-1.713,3.231-4.915,10.331-3.92,14.034C1021.953,227.435,1023.964,228.176,1029.9,227.7Z" transform="translate(-599.635 -94.185)" fill="#1e1e1e"/>
            <path id="Trazado_6596" data-name="Trazado 6596" d="M1033.925,211.956c1.72-5.99,8.451-14.266,1.343-17.962-4.262-2.214-6.817-1.779-9.162,2.643-1.721,3.238-4.923,10.338-3.929,14.041C1025.982,211.7,1027.993,212.443,1033.925,211.956Z" transform="translate(-574.412 -192.691)" fill="#1e1e1e"/>
          </g>
          <g id="Grupo_460" data-name="Grupo 460" transform="translate(2625.344 591.79)">
            <path id="Trazado_6597" data-name="Trazado 6597" d="M870.512,50.726s-11.5-12.048-6.907-22.1,20.261-10.591,20.261-10.591c18.88.46,50.142,29.006,71.449,56.5,14.807,19.109,27.755,41.2,40.276,62.567,28.565,48.728,55.543,94.756,103.407,111.861,36.844,13.168,82.178.331,103.2-29.225,5.41-7.6,9.71-16.58,14.258-26.083,4.509-9.42,9.174-19.163,15.394-28.6,23.093-35.042,77.844-61.777,122.055-59.6,30.256,1.491,54.154,16.075,67.294,41.068l-36.337,19.106c-6.375-12.12-17.16-18.389-32.979-19.171-32.492-1.6-72.072,20.424-85.755,41.187-4.677,7.1-8.548,15.18-12.645,23.737-5.1,10.65-10.37,21.664-17.833,32.156-31.643,44.477-96.332,63.431-150.47,44.081-61.919-22.127-95.434-79.31-125.009-129.761-12.41-21.17-24.131-41.167-37.315-58.179S870.512,50.726,870.512,50.726Z" transform="translate(-862.521 -18.032)" fill="#ffc852" stroke="rgba(0,0,0,0)" stroke-width="1"/>
          </g>
          <path id="Trazado_6598" data-name="Trazado 6598" d="M1662.015,66.122c-5.443-2.457-11.635-2.627-17.623-2.748-33.766-.685-67.483.666-101.225.058s-68.445-2.515-100.753,9.137c-64.224,23.164-109.991,95.284-147.067,149.081-10.834,15.72-31.236,36.678-28.457,57.211,1.032,7.612,5.205,14.378,9.282,20.889q18.877,30.12,37.732,60.254c10.156,16.221,16.114,36.867,38.068,36.456q132.83-2.477,265.207-15.228c29.137-2.789,25.382-63.726,30.154-83.978q17.217-73.11,34.429-146.222c5.919-25.145,9.885-70.686-19.278-84.692C1662.33,66.267,1662.173,66.192,1662.015,66.122Z" transform="translate(1655.125 -62.935)" fill="#2958a3"/>
          <g id="Grupo_461" data-name="Grupo 461" transform="translate(1275.314 1180.631)">
            <path id="Trazado_6599" data-name="Trazado 6599" d="M972.711,451.9a41.028,41.028,0,0,0,5.062,1.794c1.874.555,3.845,1.381,5.808,1.376,5.764-.013,7.149-7.171,2.012-9.6-1.75-.826-3.934-.91-5.844-1.2a40.468,40.468,0,0,0-5.328-.528,4.219,4.219,0,0,0-1.71,8.157Z" transform="translate(-811.874 -320.945)" fill="#fff"/>
            <path id="Trazado_6600" data-name="Trazado 6600" d="M978.121,458.691a13.608,13.608,0,0,0,5.782,4.414,4.96,4.96,0,0,0,4.529-8.725,13.7,13.7,0,0,0-6.825-2.478,4.18,4.18,0,0,0-3.979,2.234,4.244,4.244,0,0,0,.493,4.556Z" transform="translate(-787.226 -292.892)" fill="#fff"/>
            <path id="Trazado_6601" data-name="Trazado 6601" d="M983.237,455.3c1.27.462,2.526.884,3.832,1.243a17.287,17.287,0,0,0,4.632,1.034,4.685,4.685,0,0,0,1.9-9.089c-2.58-1.013-6-.888-8.747-.919-4.409-.049-6.07,6.115-1.621,7.731Z" transform="translate(-775.371 -307.792)" fill="#fff"/>
            <path id="Trazado_6602" data-name="Trazado 6602" d="M973.776,440.659a27.438,27.438,0,0,0,3.983,3.392,4.843,4.843,0,1,0,3.126-8.77,27.763,27.763,0,0,0-5.226.107,3.249,3.249,0,0,0-1.883,5.271Z" transform="translate(-801.53 -350.297)" fill="#fff"/>
            <path id="Trazado_6603" data-name="Trazado 6603" d="M960.369,437.259c.009.5-.111,1.044-.124,1.785a8.311,8.311,0,0,0,.662,3.162,9.847,9.847,0,0,0,3.122,4.845c3.122,2.491,8.051-.782,7.153-4.556a9.847,9.847,0,0,0-3.1-4.844,8.417,8.417,0,0,0-2.478-1.87,9.249,9.249,0,0,0-1.181-.4c-1.23-.382.378.191-.644-.32a2.553,2.553,0,0,0-3.41,2.194Z" transform="translate(-845.454 -351.466)" fill="#fff"/>
            <path id="Trazado_6604" data-name="Trazado 6604" d="M955.956,452.252c.444,2.8.533,5.9,2.367,8.215,2.637,3.339,8.321,1.4,8.566-2.718.173-2.877-1.616-5.555-2.851-8.077a4.34,4.34,0,0,0-5.2-2.207,4.239,4.239,0,0,0-2.882,4.787Z" transform="translate(-860.401 -308.841)" fill="#fff"/>
            <path id="Trazado_6605" data-name="Trazado 6605" d="M967.908,457.555c.875.213-1.154-.91-1.177-.933L966.34,456c.173.346.178.306.009-.124a1.486,1.486,0,0,1-.138-.746c0-.431-.009-.519-.036-.262.08.382-.524,1.123.089-.462a5.04,5.04,0,0,0,2.5,6.141,5.1,5.1,0,0,0,6.474-1.519c3.33-4.529-1-11.536-6.669-10.24a4.638,4.638,0,0,0-3.721,4.13c-.049,1.861,1.061,4.156,3.059,4.64Z" transform="translate(-829.618 -304.14)" fill="#fff"/>
            <path id="Trazado_6606" data-name="Trazado 6606" d="M952.3,447.136a28.349,28.349,0,0,0,5.018,2.642,4.684,4.684,0,1,0,3.148-8.823,27.769,27.769,0,0,0-5.555-1.132c-3.925-.564-6.008,5.262-2.611,7.313Z" transform="translate(-878.677 -334.564)" fill="#fff"/>
            <path id="Trazado_6607" data-name="Trazado 6607" d="M955.978,436.873c6.119,2.185,9.485-7.211,3.357-9.4s-9.484,7.211-3.357,9.4Z" transform="translate(-871.293 -378.047)" fill="#fff"/>
            <path id="Trazado_6608" data-name="Trazado 6608" d="M969.4,437.731c7.189,2.567,11.146-8.477,3.943-11.048S962.2,435.16,969.4,437.731Z" transform="translate(-827.078 -380.957)" fill="#fff"/>
            <path id="Trazado_6609" data-name="Trazado 6609" d="M989.654,447.426A16.4,16.4,0,0,0,998.3,451.1c2.993.355,4.849-3.464,2.909-5.67a16.4,16.4,0,0,0-7.935-4.973,3.975,3.975,0,0,0-3.619,6.971Z" transform="translate(-749.848 -332.975)" fill="#fff"/>
            <path id="Trazado_6610" data-name="Trazado 6610" d="M989.546,463.323c.9,2.584,2.207,4.7,4.96,5.613,2.234.737,5.386-.742,5.293-3.406a7.1,7.1,0,0,0-1.537-4.658,13.083,13.083,0,0,0-2.85-2.447,4.065,4.065,0,0,0-4.849.191,4.128,4.128,0,0,0-1.017,4.707Z" transform="translate(-745.743 -272.87)" fill="#fff"/>
            <path id="Trazado_6611" data-name="Trazado 6611" d="M982.633,470.573c.182.107.351.235.529.351a2.91,2.91,0,0,0,.622.337c.6.311.688.351.253.129-.568-.626.1.293.2.2l-.448-.386c.24.311.248.3.022-.036-.071-.5-.094-.142.031.124a8,8,0,0,0,.83,1.448c-.12-.164-.51-.861-.222-.3a6.5,6.5,0,0,0,1.7,1.958,4.269,4.269,0,0,0,3.974.573,4.664,4.664,0,0,0,2.855-2.7c1.376-2.7-.564-5.995-2.833-7.527-2.03-1.372-4.734-2.034-6.971-.813-2.354,1.288-3.237,5.053-.547,6.643Z" transform="translate(-774.123 -253.7)" fill="#fff"/>
            <path id="Trazado_6612" data-name="Trazado 6612" d="M972.068,465.293a5.759,5.759,0,0,0,3.366-.5,4.346,4.346,0,0,0,2.016-5.657,5.619,5.619,0,0,0-2.287-2.513,4.788,4.788,0,1,0-3.095,8.668Z" transform="translate(-820.159 -279.539)" fill="#fff"/>
            <path id="Trazado_6613" data-name="Trazado 6613" d="M998.691,477.955a19.386,19.386,0,0,0,4.449,4.787c1.936,1.576,4.063,2.788,6.656,2.256a4.483,4.483,0,0,0,3.521-5.12c-.248-2.4-2.091-4.045-4.014-5.3a18.5,18.5,0,0,0-5.142-2.615,4.516,4.516,0,0,0-4.724,1.172,4.306,4.306,0,0,0-.746,4.822Z" transform="translate(-714.743 -224.551)" fill="#fff"/>
            <path id="Trazado_6614" data-name="Trazado 6614" d="M993.48,458.971l.031.386c.413,5.031,8,5.066,9.534.777,1.767-4.956-4.01-7.944-7.873-5.435l-.324.209a4.084,4.084,0,0,0-1.456,4.081l.12.369c1.4,4.378,7.766,5.724,9.534.777,1.523-4.267-4.339-9.1-7.873-5.435a4.866,4.866,0,0,0-1.692,4.272Z" transform="translate(-731.822 -287.71)" fill="#fff"/>
            <path id="Trazado_6615" data-name="Trazado 6615" d="M948.075,427.507c-1.621-3.246-4.516-6.674-8.361-7.1a4.914,4.914,0,0,0-5.2,5.777c.906,3.717,4.592,6.177,8.051,7.375,3.606,1.243,7.26-2.553,5.515-6.048Z" transform="translate(-934.393 -401.336)" fill="#fff"/>
            <path id="Trazado_6616" data-name="Trazado 6616" d="M955.137,436.772c-2.313-1.714-4.9-3.832-7.753-4.516-2.331-.559-4.8.235-5.661,2.642-.871,2.438.537,4.583,2.709,5.63,2.651,1.279,5.972,1.274,8.863,1.412a2.861,2.861,0,0,0,1.843-5.169Z" transform="translate(-910.074 -361.051)" fill="#fff"/>
            <path id="Trazado_6617" data-name="Trazado 6617" d="M956.266,427.619a14.879,14.879,0,0,0,1.425-6.643,4.664,4.664,0,0,0-4.254-4.884,4.769,4.769,0,0,0-2.3.422,4.568,4.568,0,0,0-2.158,6.044,15.376,15.376,0,0,0,3.987,5.626,2.387,2.387,0,0,0,3.3-.564Z" transform="translate(-885.683 -416.088)" fill="#fff"/>
            <path id="Trazado_6618" data-name="Trazado 6618" d="M969.948,428.538a22.825,22.825,0,0,1,.307-2.46,16.316,16.316,0,0,0-.147-3.392c-.395-3.21-4.316-4.867-7.065-3.583-2.789,1.3-3.881,5.293-1.656,7.66a16.679,16.679,0,0,0,2.527,2.273,22.833,22.833,0,0,1,2.078,1.35,2.524,2.524,0,0,0,3.956-1.847Z" transform="translate(-845.611 -407.22)" fill="#fff"/>
            <path id="Trazado_6619" data-name="Trazado 6619" d="M987.173,437.213a31.513,31.513,0,0,1-1.052-5.222,6.577,6.577,0,0,0-6.088-5.817,4.189,4.189,0,0,0-4.258,2.74,6.531,6.531,0,0,0,.053,4.454,7.131,7.131,0,0,0,3.348,3.437,32.242,32.242,0,0,1,4.423,2.687c1.505,1.115,4.174-.333,3.575-2.278Z" transform="translate(-793.285 -381.447)" fill="#fff"/>
            <path id="Trazado_6620" data-name="Trazado 6620" d="M980.368,426a9.97,9.97,0,0,0-.8-3.654,4.953,4.953,0,0,0-9.409,1.705,6.931,6.931,0,0,0,.058,2.478,5.19,5.19,0,0,0,5.342,4.112c2.3-.12,4.938-2.1,4.813-4.64Z" transform="translate(-811.643 -404.333)" fill="#fff"/>
            <path id="Trazado_6621" data-name="Trazado 6621" d="M994.55,473.1l.746-.035c4.236-.2,5.826-4.636,2.669-7.473l-.559-.5c-5.724-5.142-10.6,8.37-2.855,8.011Z" transform="translate(-741.219 -251.525)" fill="#fff"/>
            <path id="Trazado_6622" data-name="Trazado 6622" d="M975.6,464.416c-.622,2.327-1.8,5.222-.431,7.5a3.964,3.964,0,0,0,2.677,2.06,3.6,3.6,0,0,0,3.237-.764,6.443,6.443,0,0,0,1.909-4.267c.062-.977-.067-2-.1-2.98a3.825,3.825,0,0,0-3-3.9,3.69,3.69,0,0,0-4.3,2.344Z" transform="translate(-796.299 -258.16)" fill="#fff"/>
          </g>
          <g id="Grupo_464" data-name="Grupo 464" transform="translate(201.664 1066.62)">
            <g id="Grupo_462" data-name="Grupo 462" transform="translate(80.418 71.769)">
              <path id="Trazado_6623" data-name="Trazado 6623" d="M1289.2,138.529c5.555.607,7.283-3.225,7.49-8.634.205-5.382-2.4-6.445-7.308-5.669-3.621.57-5.469,2.481-5.058,6.107.178,1.592.21,3.836,1.094,5.054C1286.206,136.472,1287.679,136.709,1289.2,138.529Z" transform="translate(-1284.266 -123.999)" fill="#fff"/>
            </g>
            <path id="Trazado_6624" data-name="Trazado 6624" d="M1277.718,138.576c-4.688,3.033-3.617,7.092-.365,11.421,3.238,4.306,5.928,3.485,9.25-.205,2.449-2.727,2.677-5.377.073-7.932-1.145-1.122-2.586-2.846-4.041-3.229C1281.34,138.285,1280.048,139.033,1277.718,138.576Z" transform="translate(-1238.438 -0.465)" fill="#fff"/>
            <path id="Trazado_6625" data-name="Trazado 6625" d="M1272.96,138.483c3.768,1.076,8.963,5.3,11.284.844,1.392-2.677,1.122-4.287-1.66-5.761-2.029-1.076-6.49-3.092-8.816-2.467A16.847,16.847,0,0,0,1272.96,138.483Z" transform="translate(-1244.445 -27.369)" fill="#fff"/>
            <path id="Trazado_6626" data-name="Trazado 6626" d="M1304.165,131.32c3.768,1.081,8.963,5.309,11.284.844,1.391-2.677,1.123-4.283-1.661-5.756-2.029-1.081-6.495-3.092-8.821-2.467A16.836,16.836,0,0,0,1304.165,131.32Z" transform="translate(-1133.328 -52.862)" fill="#fff"/>
            <path id="Trazado_6627" data-name="Trazado 6627" d="M1292.126,145.248c3.768,1.076,8.968,5.3,11.289.844,1.392-2.677,1.118-4.283-1.661-5.761-2.033-1.076-6.494-3.092-8.821-2.467A16.936,16.936,0,0,0,1292.126,145.248Z" transform="translate(-1176.19 -3.279)" fill="#fff"/>
            <path id="Trazado_6628" data-name="Trazado 6628" d="M1287.327,147.442c3.767,1.081,8.963,5.309,11.284.844,1.391-2.677,1.122-4.283-1.661-5.756-2.03-1.081-6.49-3.092-8.816-2.467A16.9,16.9,0,0,0,1287.327,147.442Z" transform="translate(-1193.28 4.548)" fill="#fff"/>
            <path id="Trazado_6629" data-name="Trazado 6629" d="M1297.025,139.357c-3.033-4.689-7.093-3.617-11.417-.365s-3.489,5.934.205,9.25c2.723,2.449,5.372,2.677,7.927.073,1.122-1.145,2.845-2.586,3.233-4.041C1297.316,142.978,1296.573,141.688,1297.025,139.357Z" transform="translate(-1209.435 -8.817)" fill="#fff"/>
            <path id="Trazado_6630" data-name="Trazado 6630" d="M1281.7,135.119c-3.033-4.689-7.092-3.617-11.421-.365-4.306,3.238-3.489,5.929.205,9.25,2.727,2.449,5.377,2.677,7.932.073,1.122-1.145,2.846-2.586,3.229-4.041C1281.991,138.74,1281.243,137.45,1281.7,135.119Z" transform="translate(-1264.017 -23.909)" fill="#fff"/>
            <path id="Trazado_6631" data-name="Trazado 6631" d="M1325.994,128.813c-3.033-4.689-7.092-3.617-11.416-.365s-3.489,5.929.2,9.25c2.723,2.449,5.373,2.677,7.931.073,1.118-1.145,2.842-2.586,3.23-4.041C1326.286,132.434,1325.542,131.144,1325.994,128.813Z" transform="translate(-1106.272 -46.365)" fill="#fff"/>
            <path id="Trazado_6632" data-name="Trazado 6632" d="M1302.95,132.781c-3.033-4.689-7.092-3.617-11.421-.365-4.306,3.238-3.489,5.929.206,9.25,2.727,2.445,5.377,2.677,7.931.073,1.122-1.145,2.842-2.586,3.229-4.041C1303.243,136.4,1302.494,135.112,1302.95,132.781Z" transform="translate(-1188.341 -32.234)" fill="#fff"/>
            <path id="Trazado_6633" data-name="Trazado 6633" d="M1309.726,127.882c-3.033-4.689-7.092-3.617-11.421-.365-4.306,3.238-3.485,5.929.2,9.25,2.728,2.449,5.378,2.677,7.931.073,1.122-1.145,2.847-2.586,3.23-4.041C1310.018,131.5,1309.27,130.213,1309.726,127.882Z" transform="translate(-1164.207 -49.68)" fill="#fff"/>
            <path id="Trazado_6634" data-name="Trazado 6634" d="M1282.526,134.717c-2.992,2.094-7.6,7.366-1.8,9,2.874.812,8.055-1.464,9.4-4.146C1292.127,135.574,1285.924,133.079,1282.526,134.717Z" transform="translate(-1226.358 -15.88)" fill="#fff"/>
            <path id="Trazado_6635" data-name="Trazado 6635" d="M1302.577,142.969c-2.992,2.094-7.6,7.361-1.8,9,2.874.812,8.054-1.464,9.4-4.146C1312.183,143.826,1305.979,141.331,1302.577,142.969Z" transform="translate(-1154.946 13.505)" fill="#fff"/>
            <path id="Trazado_6636" data-name="Trazado 6636" d="M1322.7,119.233c-2.992,2.093-7.6,7.361-1.8,9,2.874.812,8.059-1.469,9.4-4.15C1332.311,120.091,1326.1,117.591,1322.7,119.233Z" transform="translate(-1083.275 -71.024)" fill="#fff"/>
            <path id="Trazado_6637" data-name="Trazado 6637" d="M1295.607,122.168c-2.992,2.094-7.6,7.362-1.8,9,2.874.812,8.059-1.469,9.4-4.15C1305.213,123.026,1299.005,120.526,1295.607,122.168Z" transform="translate(-1179.771 -60.573)" fill="#fff"/>
            <path id="Trazado_6638" data-name="Trazado 6638" d="M1271.213,141.322c-2.992,2.094-7.6,7.361-1.8,9,2.873.812,8.055-1.464,9.4-4.146C1280.819,142.175,1274.611,139.68,1271.213,141.322Z" transform="translate(-1266.634 7.635)" fill="#fff"/>
            <path id="Trazado_6639" data-name="Trazado 6639" d="M1315.018,120.243c-2.992,2.094-7.6,7.361-1.8,9,2.874.812,8.054-1.464,9.4-4.146C1324.624,121.1,1318.42,118.6,1315.018,120.243Z" transform="translate(-1110.644 -67.428)" fill="#fff"/>
            <path id="Trazado_6640" data-name="Trazado 6640" d="M1296.976,115.171c-2.993,2.093-7.6,7.361-1.8,9,2.873.812,8.059-1.469,9.4-4.146C1306.582,116.028,1300.374,113.533,1296.976,115.171Z" transform="translate(-1174.896 -85.484)" fill="#fff"/>
            <path id="Trazado_6641" data-name="Trazado 6641" d="M1278.972,124.863c-1.081,3.767-5.309,8.967-.844,11.289,2.677,1.391,4.282,1.117,5.76-1.66,1.077-2.034,3.093-6.495,2.468-8.821A16.923,16.923,0,0,0,1278.972,124.863Z" transform="translate(-1232.847 -49.489)" fill="#fff"/>
            <path id="Trazado_6642" data-name="Trazado 6642" d="M1302.563,129.368c-1.081,3.767-5.31,8.967-.844,11.289,2.677,1.391,4.283,1.117,5.76-1.665,1.076-2.03,3.088-6.49,2.464-8.816A16.9,16.9,0,0,0,1302.563,129.368Z" transform="translate(-1148.839 -33.447)" fill="#fff"/>
            <path id="Trazado_6643" data-name="Trazado 6643" d="M1283.022,128.97c-1.081,3.767-5.309,8.962-.844,11.284,2.677,1.391,4.282,1.122,5.76-1.66,1.076-2.03,3.092-6.49,2.468-8.816A16.785,16.785,0,0,0,1283.022,128.97Z" transform="translate(-1218.424 -34.873)" fill="#fff"/>
            <path id="Trazado_6644" data-name="Trazado 6644" d="M1312.087,118.1c-3.257,2.18-9.838,3.421-7.927,8.078,1.145,2.787,2.55,3.617,5.469,2.445,2.134-.853,6.554-2.96,7.576-5.14A16.842,16.842,0,0,0,1312.087,118.1Z" transform="translate(-1134.221 -73.239)" fill="#fff"/>
            <path id="Trazado_6645" data-name="Trazado 6645" d="M1297.6,133.121c-1.081,3.767-5.309,8.962-.844,11.284,2.677,1.391,4.283,1.122,5.756-1.66,1.08-2.03,3.092-6.49,2.468-8.821A16.842,16.842,0,0,0,1297.6,133.121Z" transform="translate(-1166.512 -20.091)" fill="#fff"/>
            <g id="Grupo_463" data-name="Grupo 463" transform="translate(308.536 110.541)">
              <path id="Trazado_6646" data-name="Trazado 6646" d="M1341.776,132.563c-5.555-.6-7.279,3.225-7.485,8.634-.2,5.382,2.4,6.445,7.307,5.674,3.616-.575,5.469-2.486,5.058-6.112-.183-1.592-.214-3.836-1.1-5.054C1344.768,134.62,1343.3,134.387,1341.776,132.563Z" transform="translate(-1334.281 -132.5)" fill="#fff"/>
            </g>
            <path id="Trazado_6647" data-name="Trazado 6647" d="M1354.47,132.34c4.688-3.033,3.616-7.092.364-11.416-3.233-4.31-5.928-3.489-9.25.205-2.444,2.723-2.677,5.373-.073,7.927,1.145,1.122,2.586,2.846,4.041,3.234C1350.848,132.632,1352.139,131.889,1354.47,132.34Z" transform="translate(-992.366 -73.55)" fill="#fff"/>
            <path id="Trazado_6648" data-name="Trazado 6648" d="M1357.835,129.3c-3.768-1.081-8.963-5.309-11.284-.844-1.392,2.677-1.118,4.283,1.661,5.756,2.033,1.081,6.494,3.092,8.821,2.467A16.858,16.858,0,0,0,1357.835,129.3Z" transform="translate(-984.967 -43.507)" fill="#fff"/>
            <path id="Trazado_6649" data-name="Trazado 6649" d="M1326.63,136.458c-3.763-1.081-8.963-5.309-11.284-.844-1.392,2.677-1.117,4.283,1.66,5.761,2.034,1.076,6.494,3.088,8.821,2.463A16.834,16.834,0,0,0,1326.63,136.458Z" transform="translate(-1096.085 -18.014)" fill="#fff"/>
            <path id="Trazado_6650" data-name="Trazado 6650" d="M1338.668,122.534c-3.768-1.081-8.963-5.309-11.284-.844-1.391,2.677-1.122,4.283,1.661,5.756,2.029,1.081,6.49,3.092,8.816,2.467A16.825,16.825,0,0,0,1338.668,122.534Z" transform="translate(-1053.222 -67.598)" fill="#fff"/>
            <path id="Trazado_6651" data-name="Trazado 6651" d="M1343.466,120.336c-3.767-1.081-8.963-5.309-11.284-.844-1.391,2.677-1.117,4.283,1.661,5.761,2.03,1.076,6.495,3.088,8.821,2.463A16.836,16.836,0,0,0,1343.466,120.336Z" transform="translate(-1036.131 -75.425)" fill="#fff"/>
            <path id="Trazado_6652" data-name="Trazado 6652" d="M1333.732,146.173c-3.767-1.081-8.962-5.309-11.284-.844-1.391,2.677-1.118,4.283,1.66,5.756,2.035,1.081,6.5,3.092,8.822,2.467A16.836,16.836,0,0,0,1333.732,146.173Z" transform="translate(-1070.794 16.581)" fill="#fff"/>
            <path id="Trazado_6653" data-name="Trazado 6653" d="M1335.464,131.259c3.033,4.689,7.093,3.617,11.421.365,4.306-3.234,3.485-5.929-.205-9.25-2.727-2.445-5.377-2.677-7.931-.073-1.122,1.145-2.845,2.586-3.229,4.041C1335.172,127.638,1335.92,128.928,1335.464,131.259Z" transform="translate(-1021.671 -64.897)" fill="#fff"/>
            <path id="Trazado_6654" data-name="Trazado 6654" d="M1350.795,135.5c3.033,4.689,7.087,3.617,11.417.365,4.309-3.234,3.489-5.929-.206-9.25-2.723-2.445-5.372-2.677-7.931-.073-1.118,1.145-2.841,2.586-3.229,4.041C1350.5,131.876,1351.246,133.166,1350.795,135.5Z" transform="translate(-967.09 -49.806)" fill="#fff"/>
            <path id="Trazado_6655" data-name="Trazado 6655" d="M1306.5,141.8c3.033,4.693,7.092,3.617,11.42.365,4.306-3.234,3.484-5.929-.205-9.245-2.727-2.449-5.377-2.682-7.931-.077-1.122,1.145-2.846,2.591-3.234,4.041C1306.2,138.186,1306.948,139.476,1306.5,141.8Z" transform="translate(-1124.836 -27.35)" fill="#fff"/>
            <path id="Trazado_6656" data-name="Trazado 6656" d="M1329.543,137.835c3.033,4.693,7.092,3.617,11.421.365,4.305-3.234,3.484-5.929-.21-9.245-2.723-2.449-5.372-2.682-7.927-.078-1.122,1.145-2.846,2.591-3.233,4.041C1329.252,134.218,1329.995,135.508,1329.543,137.835Z" transform="translate(-1042.765 -41.48)" fill="#fff"/>
            <path id="Trazado_6657" data-name="Trazado 6657" d="M1322.763,142.734c3.033,4.689,7.093,3.617,11.421.365,4.311-3.234,3.489-5.929-.2-9.25-2.728-2.445-5.378-2.677-7.932-.073-1.122,1.145-2.841,2.586-3.229,4.041C1322.472,139.112,1323.22,140.4,1322.763,142.734Z" transform="translate(-1066.9 -24.035)" fill="#fff"/>
            <path id="Trazado_6658" data-name="Trazado 6658" d="M1305.32,155.764c3.033,4.693,7.092,3.617,11.421.369,4.306-3.238,3.484-5.934-.205-9.25-2.728-2.449-5.377-2.677-7.931-.073-1.122,1.145-2.846,2.586-3.234,4.036C1305.028,152.147,1305.771,153.438,1305.32,155.764Z" transform="translate(-1129.027 22.375)" fill="#fff"/>
            <path id="Trazado_6659" data-name="Trazado 6659" d="M1348.561,132.54c2.992-2.094,7.6-7.361,1.8-9-2.874-.812-8.055,1.464-9.4,4.146C1338.956,131.682,1345.158,134.177,1348.561,132.54Z" transform="translate(-1003.342 -54.474)" fill="#fff"/>
            <path id="Trazado_6660" data-name="Trazado 6660" d="M1328.507,124.287c2.992-2.094,7.6-7.361,1.8-9-2.873-.812-8.055,1.469-9.4,4.151C1318.9,123.43,1325.109,125.929,1328.507,124.287Z" transform="translate(-1074.755 -83.86)" fill="#fff"/>
            <path id="Trazado_6661" data-name="Trazado 6661" d="M1308.379,148.021c2.992-2.093,7.6-7.361,1.8-9-2.874-.812-8.055,1.464-9.4,4.146C1298.778,147.164,1304.981,149.663,1308.379,148.021Z" transform="translate(-1146.426 0.671)" fill="#fff"/>
            <path id="Trazado_6662" data-name="Trazado 6662" d="M1335.477,145.086c2.992-2.089,7.6-7.361,1.8-9-2.874-.812-8.055,1.464-9.4,4.146C1325.876,144.233,1332.079,146.728,1335.477,145.086Z" transform="translate(-1049.93 -9.78)" fill="#fff"/>
            <path id="Trazado_6663" data-name="Trazado 6663" d="M1316.066,147.016c2.992-2.094,7.6-7.366,1.8-9-2.873-.812-8.059,1.464-9.4,4.146C1306.46,146.158,1312.668,148.653,1316.066,147.016Z" transform="translate(-1119.057 -2.925)" fill="#fff"/>
            <path id="Trazado_6664" data-name="Trazado 6664" d="M1350.378,144.359c1.081-3.767,5.309-8.962.844-11.284-2.677-1.391-4.282-1.122-5.756,1.66-1.082,2.03-3.092,6.49-2.468,8.816A16.9,16.9,0,0,0,1350.378,144.359Z" transform="translate(-995.121 -22.832)" fill="#fff"/>
            <path id="Trazado_6665" data-name="Trazado 6665" d="M1367.915,138.165c1.08-3.767,5.309-8.962.843-11.284-2.677-1.391-4.282-1.117-5.756,1.66-1.081,2.034-3.092,6.495-2.468,8.821A16.842,16.842,0,0,0,1367.915,138.165Z" transform="translate(-932.671 -44.884)" fill="#fff"/>
            <path id="Trazado_6666" data-name="Trazado 6666" d="M1333.988,155.332c1.082-3.767,5.309-8.967.844-11.288-2.678-1.391-4.282-1.117-5.761,1.66-1.076,2.034-3.087,6.495-2.468,8.821A16.921,16.921,0,0,0,1333.988,155.332Z" transform="translate(-1053.495 16.23)" fill="#fff"/>
            <path id="Trazado_6667" data-name="Trazado 6667" d="M1326.791,139.854c1.077-3.767,5.305-8.962.84-11.284-2.677-1.391-4.283-1.122-5.756,1.66-1.08,2.03-3.092,6.49-2.468,8.816A16.847,16.847,0,0,0,1326.791,139.854Z" transform="translate(-1079.129 -38.874)" fill="#fff"/>
            <path id="Trazado_6668" data-name="Trazado 6668" d="M1346.328,140.254c1.082-3.767,5.309-8.962.844-11.284-2.678-1.391-4.283-1.122-5.761,1.66-1.076,2.03-3.088,6.495-2.463,8.821A16.839,16.839,0,0,0,1346.328,140.254Z" transform="translate(-1009.543 -37.45)" fill="#fff"/>
            <path id="Trazado_6669" data-name="Trazado 6669" d="M1319.636,150.217c3.257-2.18,9.842-3.421,7.931-8.073-1.149-2.791-2.55-3.621-5.473-2.449-2.134.853-6.549,2.965-7.576,5.145A16.928,16.928,0,0,0,1319.636,150.217Z" transform="translate(-1096.119 1.823)" fill="#fff"/>
            <path id="Trazado_6670" data-name="Trazado 6670" d="M1331.754,136.1c1.077-3.763,5.305-8.962.844-11.284-2.678-1.391-4.288-1.117-5.761,1.66-1.076,2.034-3.092,6.495-2.468,8.821A16.864,16.864,0,0,0,1331.754,136.1Z" transform="translate(-1061.455 -52.231)" fill="#fff"/>
            <path id="Trazado_6671" data-name="Trazado 6671" d="M1335.783,120.368c1.076-3.767,5.3-8.962.844-11.284-2.677-1.391-4.283-1.122-5.76,1.66-1.076,2.03-3.092,6.49-2.468,8.821A16.859,16.859,0,0,0,1335.783,120.368Z" transform="translate(-1047.108 -108.264)" fill="#fff"/>
          </g>
          <path id="Trazado_6672" data-name="Trazado 6672" d="M1379.914,128.984a80.584,80.584,0,0,0-12.13,2.794c-15.534,4.849-29.131,12.9-43.312,19.939-36.064,17.883-81.488,29.933-108.133,57.811-25.734,26.932,13.822,65.9,27.637,90.281,5.99,10.568,12.4,21.273,22.576,29.507,42.625,34.509,124.386,5.456,172.152-5.407,17.1-3.887,34.408-9.9,45.289-21.213,29.64-30.835,28.145-73.775,9.2-108.115C1475.259,162.094,1429.177,121.674,1379.914,128.984Z" transform="translate(-616.205 989.548)" fill="#f4844d"/>
          <path id="Trazado_6673" data-name="Trazado 6673" d="M61.23,255.822C59.66,252.109-6.472-.216.517,0c32.34,1,65.866,2.218,96.938,10.138,39.122,9.974,52.863,31.541,66.953,61.167,13.134,27.612,27.493,55.067,47.691,79.769,36.646,44.808,92.81,60.491,144.182,91.238,47.868,28.647,71.442,67.611,89.21,111.967,20.888,52.139,22.965,56.832,78.537,85.471s-17.735,77.423-22.754,77.779A162.82,162.82,0,0,0,482.2,523.22c-30.478,6.734-123.67-37.574-142.925,43.837S95.225,517.778,95.225,517.778,61.283,255.949,61.23,255.822Z" transform="translate(296.882 113.756) rotate(30)" fill="#ffc852"/>
          <path id="Trazado_6674" data-name="Trazado 6674" d="M1003.626,79.3c6.786-18.623-7.719-42.975-34.145-37.223-14.154,3.079-28.358,5.8-42.594,8.274C925.189,37.317,915.156,25,898.7,24.646q-43.871-.937-87.728-.576c-4.347-11.73-16.5-20.719-34.02-17.659-30.27,5.289-60.439,10.172-90.822,11.907a31.255,31.255,0,0,0-16.64-6.253,127.3,127.3,0,0,0-16.546-.343Q574.056,10.063,495.3,5.316A380.98,380.98,0,0,0,421.074.181c-12.257.4-20.507,6.113-24.842,13.763Q371.846,16.18,347.488,18.7q-33.23,1.22-66.425,3.1c-.539-.03-1.077-.053-1.616-.083a31.681,31.681,0,0,0-8.807.7q-64.452,3.885-128.749,10.269c-10.419,1.043-19.745,5.76-25,13.533-21.182,2.466-41.969,6.561-62.3,14.843C42.223,66.108,38.469,76.87,40.4,87.358c-3.641.422-7.278.821-10.915,1.246C13.689,90.456.292,100.014,0,116.638c-.27,15.3,13.322,28.346,29.064,28.444,5.6.038,11.211-.03,16.815-.034a29.831,29.831,0,0,0,17.178,7.2q50.58,4.145,101.218,7.608a31.328,31.328,0,0,0,15.172,21.958c5.409,6.4,13.5,10.687,22.278,10.386l510.754-17.35c10.224-.346,17.693-4.762,22.415-10.966a1080.933,1080.933,0,0,0,131.964-16.247q20.9-2.665,41.786-5.515a23.719,23.719,0,0,0,13.576-6.339q8.347-2.022,16.655-4.167,24.6.056,49.184.109C1019.758,131.793,1025.076,92.248,1003.626,79.3Z" transform="translate(690.998 592.039) rotate(3)" fill="#52c6ba"/>
        </g>
        <g id="Grupo_466" data-name="Grupo 466" transform="translate(1404.498 1258.217)">
          <path id="Trazado_6675" data-name="Trazado 6675" d="M1176.9,624.859s10.335,3.524,4.613,13.878c-7.084,9.264-14.149,6.486-14.149,6.486-13.527-6.916-54.157-24.956-75.47-50.671-8.176-9.865-12.7-23.065-18.293-34.936-12.766-27.075-24.823-52.651-49.277-63.949-18.823-8.7-43.361-4.074-55.861,10.531a93.815,93.815,0,0,0-8.763,13.091,124.269,124.269,0,0,1-9.481,14.367c-13.851,17.4-44.021,28.919-67.253,25.671-15.9-2.222-27.879-9.962-30.876-23.858,0,0-3-12.534,5.722-11.989s10.9,5.995,10.9,5.995c2.789,6.7,8.953,7.143,17.266,8.3,17.076,2.387,39.012-7.363,47.221-17.674a106.639,106.639,0,0,0,7.8-11.929,111.381,111.381,0,0,1,10.938-16.127c18.811-21.977,53.858-28.913,81.516-16.133,31.634,14.616,46.613,46.389,59.831,74.423,5.547,11.763,9.936,23.473,16.938,32.479C1131.144,609.729,1176.9,624.859,1176.9,624.859Z" transform="translate(-851.597 -469.533)" fill="#f4844d"/>
        </g>
      </g>
    </g>
  </g>
</svg>
