<svg xmlns="http://www.w3.org/2000/svg" xmlns:xlink="http://www.w3.org/1999/xlink" width="1025" height="191" viewBox="0 0 1025 191">
  <defs>
    <clipPath id="clip-memphis-2">
      <rect width="1025" height="191"/>
    </clipPath>
  </defs>
  <g id="memphis-2" clip-path="url(#clip-memphis-2)">
    <rect width="1025" height="191" fill="rgba(255,255,255,0)"/>
    <path id="Trazado_6674" data-name="Trazado 6674" d="M1003.626,79.3c6.786-18.623-7.719-42.975-34.145-37.223-14.154,3.079-28.358,5.8-42.594,8.274C925.189,37.317,915.156,25,898.7,24.646q-43.871-.937-87.728-.576c-4.347-11.73-16.5-20.719-34.02-17.659-30.27,5.289-60.439,10.172-90.822,11.907a31.255,31.255,0,0,0-16.64-6.253,127.3,127.3,0,0,0-16.546-.343Q574.056,10.063,495.3,5.316A380.98,380.98,0,0,0,421.074.181c-12.257.4-20.507,6.113-24.842,13.763Q371.846,16.18,347.488,18.7q-33.23,1.22-66.425,3.1c-.539-.03-1.077-.053-1.616-.083a31.681,31.681,0,0,0-8.807.7q-64.452,3.885-128.749,10.269c-10.419,1.043-19.745,5.76-25,13.533-21.182,2.466-41.969,6.561-62.3,14.843C42.223,66.108,38.469,76.87,40.4,87.358c-3.641.422-7.278.821-10.915,1.246C13.689,90.456.292,100.014,0,116.638c-.27,15.3,13.322,28.346,29.064,28.444,5.6.038,11.211-.03,16.815-.034a29.831,29.831,0,0,0,17.178,7.2q50.58,4.145,101.218,7.608a31.328,31.328,0,0,0,15.172,21.958c5.409,6.4,13.5,10.687,22.278,10.386l510.754-17.35c10.224-.346,17.693-4.762,22.415-10.966a1080.933,1080.933,0,0,0,131.964-16.247q20.9-2.665,41.786-5.515a23.719,23.719,0,0,0,13.576-6.339q8.347-2.022,16.655-4.167,24.6.056,49.184.109C1019.758,131.793,1025.076,92.248,1003.626,79.3Z" transform="translate(9.683 -21.819) rotate(3)" fill="#52c6ba"/>
  </g>
</svg>
