<svg xmlns="http://www.w3.org/2000/svg" xmlns:xlink="http://www.w3.org/1999/xlink" width="420" height="334" viewBox="0 0 420 334">
  <defs>
    <clipPath id="clip-memphis-5">
      <rect width="420" height="334"/>
    </clipPath>
  </defs>
  <g id="memphis-5" clip-path="url(#clip-memphis-5)">
    <rect width="420" height="334" fill="rgba(255,255,255,0)"/>
    <path id="Trazado_6598" data-name="Trazado 6598" d="M1662.015,66.122c-5.443-2.457-11.635-2.627-17.623-2.748-33.766-.685-67.483.666-101.225.058s-68.445-2.515-100.753,9.137c-64.224,23.164-109.991,95.284-147.067,149.081-10.834,15.72-31.236,36.678-28.457,57.211,1.032,7.612,5.205,14.378,9.282,20.889q18.877,30.12,37.732,60.254c10.156,16.221,16.114,36.867,38.068,36.456q132.83-2.477,265.207-15.228c29.137-2.789,25.382-63.726,30.154-83.978q17.217-73.11,34.429-146.222c5.919-25.145,9.885-70.686-19.278-84.692C1662.33,66.267,1662.173,66.192,1662.015,66.122Z" transform="translate(-1266.19 -62.793)" fill="#2958a3"/>
  </g>
</svg>
