<svg xmlns="http://www.w3.org/2000/svg" xmlns:xlink="http://www.w3.org/1999/xlink" width="430" height="697" viewBox="0 0 430 697">
  <defs>
    <clipPath id="clip-memphis-1">
      <rect width="430" height="697"/>
    </clipPath>
  </defs>
  <g id="memphis-1" clip-path="url(#clip-memphis-1)">
    <rect width="430" height="697" fill="rgba(255,255,255,0)"/>
    <path id="Trazado_6673" data-name="Trazado 6673" d="M38.429,270.73C21.257,102.65-62.626,91.748.517,0,68.028-17.915,66.383,2.218,97.455,10.138c39.122,9.974,52.863,31.541,66.953,61.167,13.134,27.612,27.493,55.067,47.691,79.769,36.646,44.808,92.81,60.491,144.182,91.238,47.868,28.647,71.442,67.611,89.21,111.967,20.888,52.139,22.965,56.832,78.537,85.471s-17.735,77.423-22.754,77.779A162.82,162.82,0,0,0,482.2,523.22c-30.478,6.734-123.67-37.574-142.925,43.837s-168.84,24.8-244.052-49.279C33.932,417.091,19.692,356.853,38.429,270.73Z" transform="translate(179.882 -3) rotate(30)" fill="#ffc852"/>
  </g>
</svg>
