<svg xmlns="http://www.w3.org/2000/svg" xmlns:xlink="http://www.w3.org/1999/xlink" width="716" height="309" viewBox="0 0 716 309">
  <defs>
    <clipPath id="clip-memphis-7">
      <rect width="716" height="309"/>
    </clipPath>
  </defs>
  <g id="memphis-7" clip-path="url(#clip-memphis-7)">
    <rect width="716" height="309" fill="rgba(255,255,255,0)"/>
    <g id="Grupo_459" data-name="Grupo 459" transform="translate(0.273 -0.053)">
      <g id="Grupo_457" data-name="Grupo 457" transform="translate(128.008 114.243)">
        <path id="Trazado_6548" data-name="Trazado 6548" d="M985.832,231.551c8.842.966,11.587-5.126,11.914-13.736.327-8.567-3.827-10.259-11.632-9.032-5.757.908-8.7,3.95-8.051,9.722.29,2.534.342,6.113,1.749,8.052C981.069,228.284,983.414,228.654,985.832,231.551Z" transform="translate(-977.974 -208.427)" fill="#1e1e1e"/>
      </g>
      <path id="Trazado_6549" data-name="Trazado 6549" d="M973.3,223.027c-7.471,4.828-5.758,11.29-.581,18.18,5.147,6.854,9.438,5.554,14.716-.327,3.9-4.342,4.269-8.56.117-12.625-1.815-1.786-4.116-4.523-6.426-5.14C979.06,222.563,977.006,223.753,973.3,223.027Z" transform="translate(-910.773 -3.184)" fill="#1e1e1e"/>
      <path id="Trazado_6550" data-name="Trazado 6550" d="M966.727,227.348c6,1.721,14.267,8.451,17.962,1.343,2.215-4.262,1.779-6.818-2.642-9.17-3.239-1.714-10.339-4.915-14.042-3.928C966.981,219.405,966.241,221.416,966.727,227.348Z" transform="translate(-921.331 -50.478)" fill="#1e1e1e"/>
      <path id="Trazado_6551" data-name="Trazado 6551" d="M997.927,220.191c6,1.713,14.273,8.444,17.969,1.343,2.215-4.262,1.779-6.824-2.642-9.17-3.238-1.713-10.339-4.922-14.041-3.928C998.188,212.248,997.448,214.252,997.927,220.191Z" transform="translate(-725.99 -95.297)" fill="#1e1e1e"/>
      <path id="Trazado_6552" data-name="Trazado 6552" d="M985.894,234.109c6,1.721,14.266,8.451,17.962,1.343,2.214-4.262,1.786-6.818-2.643-9.17-3.231-1.713-10.332-4.915-14.041-3.921C986.148,226.166,985.407,228.177,985.894,234.109Z" transform="translate(-801.341 -8.123)" fill="#1e1e1e"/>
      <path id="Trazado_6553" data-name="Trazado 6553" d="M981.095,236.313c6,1.721,14.266,8.451,17.962,1.343,2.214-4.262,1.779-6.817-2.642-9.17-3.238-1.714-10.339-4.923-14.042-3.928C981.349,228.37,980.608,230.374,981.095,236.313Z" transform="translate(-831.383 5.631)" fill="#1e1e1e"/>
      <path id="Trazado_6554" data-name="Trazado 6554" d="M999.214,225.661c-4.828-7.471-11.29-5.757-18.179-.581-6.854,5.148-5.547,9.438.327,14.716,4.341,3.9,8.56,4.269,12.625.116,1.786-1.822,4.53-4.117,5.14-6.425C999.678,231.418,998.488,229.364,999.214,225.661Z" transform="translate(-859.783 -17.862)" fill="#1e1e1e"/>
      <path id="Trazado_6555" data-name="Trazado 6555" d="M983.884,221.423c-4.828-7.471-11.289-5.757-18.172-.581-6.861,5.147-5.554,9.438.327,14.717,4.334,3.9,8.552,4.269,12.619.116,1.786-1.815,4.53-4.117,5.147-6.425C984.349,227.18,983.165,225.126,983.884,221.423Z" transform="translate(-955.738 -44.393)" fill="#1e1e1e"/>
      <path id="Trazado_6556" data-name="Trazado 6556" d="M1028.184,215.118c-4.829-7.471-11.29-5.757-18.18-.588-6.854,5.155-5.546,9.445.327,14.724,4.342,3.9,8.56,4.262,12.626.116,1.786-1.822,4.53-4.117,5.14-6.433C1028.649,220.875,1027.458,218.82,1028.184,215.118Z" transform="translate(-678.424 -83.871)" fill="#1e1e1e"/>
      <path id="Trazado_6557" data-name="Trazado 6557" d="M1005.137,219.086c-4.828-7.471-11.29-5.757-18.18-.588-6.854,5.155-5.547,9.446.327,14.724,4.341,3.9,8.56,4.262,12.625.116,1.786-1.822,4.531-4.117,5.147-6.433C1005.6,224.843,1004.411,222.788,1005.137,219.086Z" transform="translate(-822.704 -59.03)" fill="#1e1e1e"/>
      <path id="Trazado_6558" data-name="Trazado 6558" d="M1011.912,214.186c-4.828-7.471-11.29-5.757-18.172-.581-6.861,5.147-5.554,9.438.327,14.717,4.334,3.9,8.553,4.269,12.618.116,1.787-1.822,4.531-4.117,5.148-6.425C1012.376,219.943,1011.193,217.889,1011.912,214.186Z" transform="translate(-780.276 -89.699)" fill="#1e1e1e"/>
      <path id="Trazado_6559" data-name="Trazado 6559" d="M978.944,219.448c-4.763,3.332-12.1,11.718-2.868,14.324,4.581,1.3,12.829-2.331,14.963-6.6C994.234,220.813,984.352,216.835,978.944,219.448Z" transform="translate(-889.536 -30.28)" fill="#1e1e1e"/>
      <path id="Trazado_6560" data-name="Trazado 6560" d="M999,227.7c-4.763,3.34-12.1,11.725-2.868,14.332,4.574,1.292,12.822-2.331,14.964-6.6C1014.28,229.062,1004.407,225.091,999,227.7Z" transform="translate(-763.994 21.376)" fill="#1e1e1e"/>
      <path id="Trazado_6561" data-name="Trazado 6561" d="M1019.128,203.96c-4.763,3.332-12.1,11.725-2.868,14.332,4.574,1.292,12.822-2.331,14.963-6.6C1034.41,205.325,1024.536,201.354,1019.128,203.96Z" transform="translate(-637.996 -127.223)" fill="#1e1e1e"/>
      <path id="Trazado_6562" data-name="Trazado 6562" d="M992.03,206.895c-4.762,3.332-12.1,11.718-2.868,14.332,4.574,1.292,12.822-2.331,14.963-6.6C1007.312,208.26,997.439,204.289,992.03,206.895Z" transform="translate(-807.636 -108.849)" fill="#1e1e1e"/>
      <path id="Trazado_6563" data-name="Trazado 6563" d="M967.636,226.051c-4.763,3.332-12.1,11.718-2.867,14.332,4.574,1.292,12.822-2.338,14.963-6.6C982.919,227.416,973.046,223.438,967.636,226.051Z" transform="translate(-960.342 11.057)" fill="#1e1e1e"/>
      <path id="Trazado_6564" data-name="Trazado 6564" d="M1011.439,204.97c-4.763,3.332-12.1,11.718-2.868,14.332,4.574,1.292,12.822-2.338,14.963-6.6C1026.721,206.335,1016.847,202.364,1011.439,204.97Z" transform="translate(-686.11 -120.9)" fill="#1e1e1e"/>
      <path id="Trazado_6565" data-name="Trazado 6565" d="M993.4,199.9c-4.762,3.332-12.1,11.725-2.868,14.332,4.573,1.292,12.822-2.331,14.963-6.6C1008.681,201.264,998.807,197.293,993.4,199.9Z" transform="translate(-799.066 -152.646)" fill="#1e1e1e"/>
      <path id="Trazado_6566" data-name="Trazado 6566" d="M974.368,209.35c-1.721,6-8.451,14.266-1.343,17.962,4.262,2.214,6.818,1.786,9.163-2.643,1.721-3.238,4.922-10.339,3.928-14.041C982.31,209.6,980.3,208.863,974.368,209.35Z" transform="translate(-900.94 -89.364)" fill="#1e1e1e"/>
      <path id="Trazado_6567" data-name="Trazado 6567" d="M997.953,213.855c-1.714,6-8.444,14.266-1.343,17.962,4.262,2.214,6.824,1.779,9.17-2.643,1.713-3.238,4.922-10.338,3.927-14.041C1005.9,214.109,1003.892,213.368,997.953,213.855Z" transform="translate(-753.256 -61.161)" fill="#1e1e1e"/>
      <path id="Trazado_6568" data-name="Trazado 6568" d="M978.417,213.451c-1.721,6-8.451,14.274-1.343,17.969,4.262,2.214,6.818,1.779,9.163-2.643,1.721-3.238,4.922-10.339,3.928-14.041C986.36,213.712,984.349,212.971,978.417,213.451Z" transform="translate(-875.586 -63.668)" fill="#1e1e1e"/>
      <path id="Trazado_6569" data-name="Trazado 6569" d="M1010.688,202.528c-5.177,3.47-15.661,5.445-12.619,12.851,1.83,4.443,4.059,5.765,8.713,3.9,3.4-1.365,10.426-4.719,12.059-8.19C1016.59,207.85,1015.538,205.984,1010.688,202.528Z" transform="translate(-727.563 -131.113)" fill="#1e1e1e"/>
      <path id="Trazado_6570" data-name="Trazado 6570" d="M992.99,217.6c-1.714,6-8.444,14.273-1.343,17.962,4.262,2.221,6.817,1.786,9.169-2.643,1.714-3.231,4.923-10.331,3.928-14.034C1000.933,217.863,998.929,217.122,992.99,217.6Z" transform="translate(-784.326 -37.682)" fill="#1e1e1e"/>
      <g id="Grupo_458" data-name="Grupo 458" transform="translate(491.127 175.964)">
        <path id="Trazado_6571" data-name="Trazado 6571" d="M1039.92,217.029c-8.835-.966-11.587,5.126-11.914,13.736-.326,8.567,3.826,10.266,11.631,9.032,5.764-.907,8.705-3.95,8.052-9.722-.284-2.534-.342-6.113-1.743-8.044C1044.69,220.3,1042.345,219.926,1039.92,217.029Z" transform="translate(-1027.989 -216.928)" fill="#1e1e1e"/>
      </g>
      <path id="Trazado_6572" data-name="Trazado 6572" d="M1054.575,225.251c7.47-4.828,5.757-11.29.588-18.18-5.155-6.854-9.446-5.554-14.724.327-3.9,4.342-4.262,8.56-.116,12.626,1.822,1.786,4.116,4.523,6.432,5.14C1048.817,225.716,1050.872,224.525,1054.575,225.251Z" transform="translate(-478.18 -131.663)" fill="#1e1e1e"/>
      <path id="Trazado_6573" data-name="Trazado 6573" d="M1058.71,215.413c-6-1.721-14.273-8.451-17.962-1.343-2.222,4.262-1.785,6.817,2.643,9.17,3.23,1.713,10.331,4.915,14.034,3.928C1058.448,223.355,1059.189,221.344,1058.71,215.413Z" transform="translate(-465.173 -78.851)" fill="#1e1e1e"/>
      <path id="Trazado_6574" data-name="Trazado 6574" d="M1027.5,222.567c-6-1.713-14.266-8.444-17.961-1.343-2.215,4.262-1.786,6.824,2.643,9.17,3.23,1.713,10.331,4.922,14.041,3.928C1027.249,230.51,1027.99,228.506,1027.5,222.567Z" transform="translate(-660.515 -34.03)" fill="#1e1e1e"/>
      <path id="Trazado_6575" data-name="Trazado 6575" d="M1039.538,208.647c-5.99-1.721-14.267-8.451-17.962-1.343-2.215,4.262-1.779,6.818,2.642,9.17,3.239,1.713,10.339,4.915,14.042,3.921C1039.283,216.59,1040.023,214.579,1039.538,208.647Z" transform="translate(-585.165 -121.202)" fill="#1e1e1e"/>
      <path id="Trazado_6576" data-name="Trazado 6576" d="M1044.342,206.45c-6-1.721-14.274-8.451-17.962-1.343-2.221,4.262-1.785,6.817,2.643,9.17,3.231,1.714,10.331,4.922,14.034,3.928C1044.08,214.392,1044.821,212.388,1044.342,206.45Z" transform="translate(-555.121 -134.962)" fill="#1e1e1e"/>
      <path id="Trazado_6577" data-name="Trazado 6577" d="M1034.6,232.286c-6-1.721-14.266-8.451-17.961-1.343-2.214,4.262-1.786,6.817,2.643,9.17,3.23,1.713,10.331,4.915,14.034,3.928C1034.344,240.229,1035.084,238.225,1034.6,232.286Z" transform="translate(-616.055 26.784)" fill="#1e1e1e"/>
      <path id="Trazado_6578" data-name="Trazado 6578" d="M1029.2,222.086c4.828,7.471,11.29,5.757,18.179.581,6.861-5.147,5.554-9.438-.327-14.716-4.334-3.9-8.56-4.269-12.626-.116-1.786,1.822-4.522,4.117-5.141,6.425C1028.732,216.328,1029.922,218.383,1029.2,222.086Z" transform="translate(-529.701 -116.453)" fill="#1e1e1e"/>
      <path id="Trazado_6579" data-name="Trazado 6579" d="M1044.524,226.324c4.828,7.471,11.29,5.757,18.18.581,6.853-5.147,5.547-9.438-.327-14.716-4.342-3.9-8.559-4.269-12.626-.116-1.785,1.815-4.53,4.116-5.14,6.425C1044.06,220.566,1045.25,222.621,1044.524,226.324Z" transform="translate(-433.744 -89.922)" fill="#1e1e1e"/>
      <path id="Trazado_6580" data-name="Trazado 6580" d="M1000.226,232.627c4.828,7.471,11.29,5.757,18.18.581,6.854-5.147,5.554-9.438-.327-14.716-4.341-3.9-8.56-4.262-12.625-.116-1.786,1.822-4.523,4.116-5.141,6.432C999.762,226.87,1000.952,228.924,1000.226,232.627Z" transform="translate(-711.061 -50.443)" fill="#1e1e1e"/>
      <path id="Trazado_6581" data-name="Trazado 6581" d="M1023.274,228.659c4.828,7.471,11.289,5.757,18.179.588,6.854-5.155,5.554-9.446-.326-14.724-4.342-3.9-8.56-4.262-12.626-.116-1.786,1.822-4.523,4.117-5.141,6.425C1022.809,222.9,1024,224.956,1023.274,228.659Z" transform="translate(-566.781 -75.283)" fill="#1e1e1e"/>
      <path id="Trazado_6582" data-name="Trazado 6582" d="M1016.5,233.561c4.828,7.471,11.29,5.757,18.18.581,6.854-5.147,5.547-9.438-.326-14.716-4.342-3.9-8.56-4.269-12.626-.116-1.787,1.815-4.53,4.116-5.141,6.425C1016.032,227.8,1017.222,229.858,1016.5,233.561Z" transform="translate(-609.207 -44.617)" fill="#1e1e1e"/>
      <path id="Trazado_6583" data-name="Trazado 6583" d="M999.049,246.6c4.828,7.464,11.29,5.757,18.18.581,6.854-5.155,5.554-9.438-.327-14.724-4.342-3.9-8.56-4.262-12.626-.116-1.785,1.822-4.523,4.117-5.14,6.433C998.584,240.833,999.775,242.887,999.049,246.6Z" transform="translate(-718.429 36.969)" fill="#1e1e1e"/>
      <path id="Trazado_6584" data-name="Trazado 6584" d="M1047,222.387c4.763-3.332,12.1-11.718,2.868-14.324-4.574-1.292-12.822,2.331-14.964,6.6C1031.713,221.022,1041.586,225,1047,222.387Z" transform="translate(-497.477 -98.125)" fill="#1e1e1e"/>
      <path id="Trazado_6585" data-name="Trazado 6585" d="M1026.941,214.135c4.763-3.332,12.1-11.718,2.868-14.324-4.574-1.292-12.822,2.33-14.963,6.6C1011.658,212.778,1021.532,216.749,1026.941,214.135Z" transform="translate(-623.021 -149.784)" fill="#1e1e1e"/>
      <path id="Trazado_6586" data-name="Trazado 6586" d="M1006.817,237.88c4.763-3.332,12.1-11.725,2.867-14.332-4.581-1.292-12.829,2.331-14.963,6.6C991.527,236.515,1001.408,240.486,1006.817,237.88Z" transform="translate(-749.015 -1.185)" fill="#1e1e1e"/>
      <path id="Trazado_6587" data-name="Trazado 6587" d="M1033.915,234.945c4.762-3.332,12.1-11.718,2.861-14.332-4.574-1.292-12.822,2.33-14.956,6.6C1018.625,233.58,1028.506,237.551,1033.915,234.945Z" transform="translate(-579.376 -19.559)" fill="#1e1e1e"/>
      <path id="Trazado_6588" data-name="Trazado 6588" d="M1014.5,236.869c4.763-3.332,12.1-11.718,2.868-14.332-4.574-1.292-12.822,2.338-14.964,6.607C999.218,235.5,1009.091,239.476,1014.5,236.869Z" transform="translate(-700.904 -7.508)" fill="#1e1e1e"/>
      <path id="Trazado_6589" data-name="Trazado 6589" d="M1048.53,235.947c1.713-6,8.443-14.266,1.343-17.962-4.261-2.214-6.824-1.779-9.169,2.643-1.714,3.238-4.922,10.339-3.927,14.041C1040.587,235.693,1042.591,236.434,1048.53,235.947Z" transform="translate(-483.025 -42.502)" fill="#1e1e1e"/>
      <path id="Trazado_6590" data-name="Trazado 6590" d="M1066.067,229.761c1.72-6,8.45-14.274,1.342-17.969-4.261-2.214-6.817-1.779-9.169,2.65-1.713,3.231-4.922,10.331-3.928,14.034C1058.124,229.5,1060.128,230.241,1066.067,229.761Z" transform="translate(-373.239 -81.272)" fill="#1e1e1e"/>
      <path id="Trazado_6591" data-name="Trazado 6591" d="M1032.131,246.919c1.721-6,8.451-14.266,1.343-17.962-4.262-2.214-6.817-1.786-9.163,2.643-1.72,3.231-4.922,10.331-3.928,14.034C1024.188,246.658,1026.2,247.406,1032.131,246.919Z" transform="translate(-585.643 26.171)" fill="#1e1e1e"/>
      <path id="Trazado_6592" data-name="Trazado 6592" d="M1024.937,231.443c1.72-6,8.451-14.266,1.343-17.962-4.262-2.214-6.818-1.779-9.17,2.643-1.714,3.238-4.915,10.339-3.928,14.041C1016.994,231.188,1019,231.929,1024.937,231.443Z" transform="translate(-630.708 -70.705)" fill="#1e1e1e"/>
      <path id="Trazado_6593" data-name="Trazado 6593" d="M1044.479,231.842c1.714-5.99,8.444-14.266,1.344-17.962-4.262-2.215-6.825-1.779-9.17,2.643-1.713,3.238-4.923,10.338-3.928,14.041C1036.537,231.588,1038.541,232.329,1044.479,231.842Z" transform="translate(-508.379 -68.201)" fill="#1e1e1e"/>
      <path id="Trazado_6594" data-name="Trazado 6594" d="M1016.379,241.176c5.184-3.47,15.66-5.445,12.618-12.851-1.823-4.443-4.058-5.765-8.705-3.9-3.4,1.365-10.433,4.719-12.066,8.19C1010.477,235.854,1011.53,237.72,1016.379,241.176Z" transform="translate(-660.579 0.84)" fill="#1e1e1e"/>
      <path id="Trazado_6595" data-name="Trazado 6595" d="M1029.9,227.7c1.721-6,8.451-14.274,1.343-17.962-4.262-2.222-6.817-1.786-9.169,2.643-1.713,3.231-4.915,10.331-3.92,14.034C1021.953,227.435,1023.964,228.176,1029.9,227.7Z" transform="translate(-599.635 -94.185)" fill="#1e1e1e"/>
      <path id="Trazado_6596" data-name="Trazado 6596" d="M1033.925,211.956c1.72-5.99,8.451-14.266,1.343-17.962-4.262-2.214-6.817-1.779-9.162,2.643-1.721,3.238-4.923,10.338-3.929,14.041C1025.982,211.7,1027.993,212.443,1033.925,211.956Z" transform="translate(-574.412 -192.691)" fill="#1e1e1e"/>
    </g>
  </g>
</svg>
