<svg xmlns="http://www.w3.org/2000/svg" xmlns:xlink="http://www.w3.org/1999/xlink" width="640" height="476" viewBox="0 0 640 476">
  <defs>
    <clipPath id="clip-memphis-3">
      <rect width="640" height="476"/>
    </clipPath>
  </defs>
  <g id="memphis-3" clip-path="url(#clip-memphis-3)">
    <rect width="640" height="476" fill="rgba(255,255,255,0)"/>
    <g id="Grupo_504" data-name="Grupo 504" transform="translate(150 -1043)">
      <path id="Trazado_6545" data-name="Trazado 6545" d="M1142.753,566.188c.3.894,6.452,11.006,6.452,11.006s13.957,17.025,44.506,33.088c66.14,16.692,107.023,60.691,185.326,46.921,75.133-13.215,146.807-70.259,197.457-131.539,45.531-55.09,58.121-107.751,9.51-164.906-36.613-43.057-69.416-94.339-112.044-132.029-50.474-44.632-102.7-49.167-164.821-43.2-40.094,3.853-80.044,12.3-120.417,11.3-6.957.7-25.016,16.961-26.968,22.667-7.76,22.652-12.224,46.288-15.867,70.168-3.021,19.819-6.218,40.577-6.534,60.76-.388,24.813,2.872,49.606,3.4,74.4.712,33.539,1.348,67.017,2.192,100.535C1145.174,534.461,1139.271,555.746,1142.753,566.188Z" transform="translate(-1187.088 859.456)" fill="#2958a3"/>
      <path id="Trazado_6672" data-name="Trazado 6672" d="M1379.914,128.984a80.584,80.584,0,0,0-12.13,2.794c-15.534,4.849-29.131,12.9-43.312,19.939-36.064,17.883-81.488,29.933-108.133,57.811-25.734,26.932,13.822,65.9,27.637,90.281,5.99,10.568,12.4,21.273,22.576,29.507,42.625,34.509,124.386,5.456,172.152-5.407,17.1-3.887,34.408-9.9,45.289-21.213,29.64-30.835,28.145-73.775,9.2-108.115C1475.259,162.094,1429.177,121.674,1379.914,128.984Z" transform="translate(-1016.521 935.69)" fill="#f4844d"/>
      <g id="Grupo_464" data-name="Grupo 464" transform="translate(-149.651 1042.762)">
        <g id="Grupo_462" data-name="Grupo 462" transform="translate(80.418 71.769)">
          <path id="Trazado_6623" data-name="Trazado 6623" d="M1289.2,138.529c5.555.607,7.283-3.225,7.49-8.634.205-5.382-2.4-6.445-7.308-5.669-3.621.57-5.469,2.481-5.058,6.107.178,1.592.21,3.836,1.094,5.054C1286.206,136.472,1287.679,136.709,1289.2,138.529Z" transform="translate(-1284.266 -123.999)" fill="#fff"/>
        </g>
        <path id="Trazado_6624" data-name="Trazado 6624" d="M1277.718,138.576c-4.688,3.033-3.617,7.092-.365,11.421,3.238,4.306,5.928,3.485,9.25-.205,2.449-2.727,2.677-5.377.073-7.932-1.145-1.122-2.586-2.846-4.041-3.229C1281.34,138.285,1280.048,139.033,1277.718,138.576Z" transform="translate(-1238.438 -0.465)" fill="#fff"/>
        <path id="Trazado_6625" data-name="Trazado 6625" d="M1272.96,138.483c3.768,1.076,8.963,5.3,11.284.844,1.392-2.677,1.122-4.287-1.66-5.761-2.029-1.076-6.49-3.092-8.816-2.467A16.847,16.847,0,0,0,1272.96,138.483Z" transform="translate(-1244.445 -27.369)" fill="#fff"/>
        <path id="Trazado_6626" data-name="Trazado 6626" d="M1304.165,131.32c3.768,1.081,8.963,5.309,11.284.844,1.391-2.677,1.123-4.283-1.661-5.756-2.029-1.081-6.495-3.092-8.821-2.467A16.836,16.836,0,0,0,1304.165,131.32Z" transform="translate(-1133.328 -52.862)" fill="#fff"/>
        <path id="Trazado_6627" data-name="Trazado 6627" d="M1292.126,145.248c3.768,1.076,8.968,5.3,11.289.844,1.392-2.677,1.118-4.283-1.661-5.761-2.033-1.076-6.494-3.092-8.821-2.467A16.936,16.936,0,0,0,1292.126,145.248Z" transform="translate(-1176.19 -3.279)" fill="#fff"/>
        <path id="Trazado_6628" data-name="Trazado 6628" d="M1287.327,147.442c3.767,1.081,8.963,5.309,11.284.844,1.391-2.677,1.122-4.283-1.661-5.756-2.03-1.081-6.49-3.092-8.816-2.467A16.9,16.9,0,0,0,1287.327,147.442Z" transform="translate(-1193.28 4.548)" fill="#fff"/>
        <path id="Trazado_6629" data-name="Trazado 6629" d="M1297.025,139.357c-3.033-4.689-7.093-3.617-11.417-.365s-3.489,5.934.205,9.25c2.723,2.449,5.372,2.677,7.927.073,1.122-1.145,2.845-2.586,3.233-4.041C1297.316,142.978,1296.573,141.688,1297.025,139.357Z" transform="translate(-1209.435 -8.817)" fill="#fff"/>
        <path id="Trazado_6630" data-name="Trazado 6630" d="M1281.7,135.119c-3.033-4.689-7.092-3.617-11.421-.365-4.306,3.238-3.489,5.929.205,9.25,2.727,2.449,5.377,2.677,7.932.073,1.122-1.145,2.846-2.586,3.229-4.041C1281.991,138.74,1281.243,137.45,1281.7,135.119Z" transform="translate(-1264.017 -23.909)" fill="#fff"/>
        <path id="Trazado_6631" data-name="Trazado 6631" d="M1325.994,128.813c-3.033-4.689-7.092-3.617-11.416-.365s-3.489,5.929.2,9.25c2.723,2.449,5.373,2.677,7.931.073,1.118-1.145,2.842-2.586,3.23-4.041C1326.286,132.434,1325.542,131.144,1325.994,128.813Z" transform="translate(-1106.272 -46.365)" fill="#fff"/>
        <path id="Trazado_6632" data-name="Trazado 6632" d="M1302.95,132.781c-3.033-4.689-7.092-3.617-11.421-.365-4.306,3.238-3.489,5.929.206,9.25,2.727,2.445,5.377,2.677,7.931.073,1.122-1.145,2.842-2.586,3.229-4.041C1303.243,136.4,1302.494,135.112,1302.95,132.781Z" transform="translate(-1188.341 -32.234)" fill="#fff"/>
        <path id="Trazado_6633" data-name="Trazado 6633" d="M1309.726,127.882c-3.033-4.689-7.092-3.617-11.421-.365-4.306,3.238-3.485,5.929.2,9.25,2.728,2.449,5.378,2.677,7.931.073,1.122-1.145,2.847-2.586,3.23-4.041C1310.018,131.5,1309.27,130.213,1309.726,127.882Z" transform="translate(-1164.207 -49.68)" fill="#fff"/>
        <path id="Trazado_6634" data-name="Trazado 6634" d="M1282.526,134.717c-2.992,2.094-7.6,7.366-1.8,9,2.874.812,8.055-1.464,9.4-4.146C1292.127,135.574,1285.924,133.079,1282.526,134.717Z" transform="translate(-1226.358 -15.88)" fill="#fff"/>
        <path id="Trazado_6635" data-name="Trazado 6635" d="M1302.577,142.969c-2.992,2.094-7.6,7.361-1.8,9,2.874.812,8.054-1.464,9.4-4.146C1312.183,143.826,1305.979,141.331,1302.577,142.969Z" transform="translate(-1154.946 13.505)" fill="#fff"/>
        <path id="Trazado_6636" data-name="Trazado 6636" d="M1322.7,119.233c-2.992,2.093-7.6,7.361-1.8,9,2.874.812,8.059-1.469,9.4-4.15C1332.311,120.091,1326.1,117.591,1322.7,119.233Z" transform="translate(-1083.275 -71.024)" fill="#fff"/>
        <path id="Trazado_6637" data-name="Trazado 6637" d="M1295.607,122.168c-2.992,2.094-7.6,7.362-1.8,9,2.874.812,8.059-1.469,9.4-4.15C1305.213,123.026,1299.005,120.526,1295.607,122.168Z" transform="translate(-1179.771 -60.573)" fill="#fff"/>
        <path id="Trazado_6638" data-name="Trazado 6638" d="M1271.213,141.322c-2.992,2.094-7.6,7.361-1.8,9,2.873.812,8.055-1.464,9.4-4.146C1280.819,142.175,1274.611,139.68,1271.213,141.322Z" transform="translate(-1266.634 7.635)" fill="#fff"/>
        <path id="Trazado_6639" data-name="Trazado 6639" d="M1315.018,120.243c-2.992,2.094-7.6,7.361-1.8,9,2.874.812,8.054-1.464,9.4-4.146C1324.624,121.1,1318.42,118.6,1315.018,120.243Z" transform="translate(-1110.644 -67.428)" fill="#fff"/>
        <path id="Trazado_6640" data-name="Trazado 6640" d="M1296.976,115.171c-2.993,2.093-7.6,7.361-1.8,9,2.873.812,8.059-1.469,9.4-4.146C1306.582,116.028,1300.374,113.533,1296.976,115.171Z" transform="translate(-1174.896 -85.484)" fill="#fff"/>
        <path id="Trazado_6641" data-name="Trazado 6641" d="M1278.972,124.863c-1.081,3.767-5.309,8.967-.844,11.289,2.677,1.391,4.282,1.117,5.76-1.66,1.077-2.034,3.093-6.495,2.468-8.821A16.923,16.923,0,0,0,1278.972,124.863Z" transform="translate(-1232.847 -49.489)" fill="#fff"/>
        <path id="Trazado_6642" data-name="Trazado 6642" d="M1302.563,129.368c-1.081,3.767-5.31,8.967-.844,11.289,2.677,1.391,4.283,1.117,5.76-1.665,1.076-2.03,3.088-6.49,2.464-8.816A16.9,16.9,0,0,0,1302.563,129.368Z" transform="translate(-1148.839 -33.447)" fill="#fff"/>
        <path id="Trazado_6643" data-name="Trazado 6643" d="M1283.022,128.97c-1.081,3.767-5.309,8.962-.844,11.284,2.677,1.391,4.282,1.122,5.76-1.66,1.076-2.03,3.092-6.49,2.468-8.816A16.785,16.785,0,0,0,1283.022,128.97Z" transform="translate(-1218.424 -34.873)" fill="#fff"/>
        <path id="Trazado_6644" data-name="Trazado 6644" d="M1312.087,118.1c-3.257,2.18-9.838,3.421-7.927,8.078,1.145,2.787,2.55,3.617,5.469,2.445,2.134-.853,6.554-2.96,7.576-5.14A16.842,16.842,0,0,0,1312.087,118.1Z" transform="translate(-1134.221 -73.239)" fill="#fff"/>
        <path id="Trazado_6645" data-name="Trazado 6645" d="M1297.6,133.121c-1.081,3.767-5.309,8.962-.844,11.284,2.677,1.391,4.283,1.122,5.756-1.66,1.08-2.03,3.092-6.49,2.468-8.821A16.842,16.842,0,0,0,1297.6,133.121Z" transform="translate(-1166.512 -20.091)" fill="#fff"/>
        <g id="Grupo_463" data-name="Grupo 463" transform="translate(308.536 110.541)">
          <path id="Trazado_6646" data-name="Trazado 6646" d="M1341.776,132.563c-5.555-.6-7.279,3.225-7.485,8.634-.2,5.382,2.4,6.445,7.307,5.674,3.616-.575,5.469-2.486,5.058-6.112-.183-1.592-.214-3.836-1.1-5.054C1344.768,134.62,1343.3,134.387,1341.776,132.563Z" transform="translate(-1334.281 -132.5)" fill="#fff"/>
        </g>
        <path id="Trazado_6647" data-name="Trazado 6647" d="M1354.47,132.34c4.688-3.033,3.616-7.092.364-11.416-3.233-4.31-5.928-3.489-9.25.205-2.444,2.723-2.677,5.373-.073,7.927,1.145,1.122,2.586,2.846,4.041,3.234C1350.848,132.632,1352.139,131.889,1354.47,132.34Z" transform="translate(-992.366 -73.55)" fill="#fff"/>
        <path id="Trazado_6648" data-name="Trazado 6648" d="M1357.835,129.3c-3.768-1.081-8.963-5.309-11.284-.844-1.392,2.677-1.118,4.283,1.661,5.756,2.033,1.081,6.494,3.092,8.821,2.467A16.858,16.858,0,0,0,1357.835,129.3Z" transform="translate(-984.967 -43.507)" fill="#fff"/>
        <path id="Trazado_6649" data-name="Trazado 6649" d="M1326.63,136.458c-3.763-1.081-8.963-5.309-11.284-.844-1.392,2.677-1.117,4.283,1.66,5.761,2.034,1.076,6.494,3.088,8.821,2.463A16.834,16.834,0,0,0,1326.63,136.458Z" transform="translate(-1096.085 -18.014)" fill="#fff"/>
        <path id="Trazado_6650" data-name="Trazado 6650" d="M1338.668,122.534c-3.768-1.081-8.963-5.309-11.284-.844-1.391,2.677-1.122,4.283,1.661,5.756,2.029,1.081,6.49,3.092,8.816,2.467A16.825,16.825,0,0,0,1338.668,122.534Z" transform="translate(-1053.222 -67.598)" fill="#fff"/>
        <path id="Trazado_6651" data-name="Trazado 6651" d="M1343.466,120.336c-3.767-1.081-8.963-5.309-11.284-.844-1.391,2.677-1.117,4.283,1.661,5.761,2.03,1.076,6.495,3.088,8.821,2.463A16.836,16.836,0,0,0,1343.466,120.336Z" transform="translate(-1036.131 -75.425)" fill="#fff"/>
        <path id="Trazado_6652" data-name="Trazado 6652" d="M1333.732,146.173c-3.767-1.081-8.962-5.309-11.284-.844-1.391,2.677-1.118,4.283,1.66,5.756,2.035,1.081,6.5,3.092,8.822,2.467A16.836,16.836,0,0,0,1333.732,146.173Z" transform="translate(-1070.794 16.581)" fill="#fff"/>
        <path id="Trazado_6653" data-name="Trazado 6653" d="M1335.464,131.259c3.033,4.689,7.093,3.617,11.421.365,4.306-3.234,3.485-5.929-.205-9.25-2.727-2.445-5.377-2.677-7.931-.073-1.122,1.145-2.845,2.586-3.229,4.041C1335.172,127.638,1335.92,128.928,1335.464,131.259Z" transform="translate(-1021.671 -64.897)" fill="#fff"/>
        <path id="Trazado_6654" data-name="Trazado 6654" d="M1350.795,135.5c3.033,4.689,7.087,3.617,11.417.365,4.309-3.234,3.489-5.929-.206-9.25-2.723-2.445-5.372-2.677-7.931-.073-1.118,1.145-2.841,2.586-3.229,4.041C1350.5,131.876,1351.246,133.166,1350.795,135.5Z" transform="translate(-967.09 -49.806)" fill="#fff"/>
        <path id="Trazado_6655" data-name="Trazado 6655" d="M1306.5,141.8c3.033,4.693,7.092,3.617,11.42.365,4.306-3.234,3.484-5.929-.205-9.245-2.727-2.449-5.377-2.682-7.931-.077-1.122,1.145-2.846,2.591-3.234,4.041C1306.2,138.186,1306.948,139.476,1306.5,141.8Z" transform="translate(-1124.836 -27.35)" fill="#fff"/>
        <path id="Trazado_6656" data-name="Trazado 6656" d="M1329.543,137.835c3.033,4.693,7.092,3.617,11.421.365,4.305-3.234,3.484-5.929-.21-9.245-2.723-2.449-5.372-2.682-7.927-.078-1.122,1.145-2.846,2.591-3.233,4.041C1329.252,134.218,1329.995,135.508,1329.543,137.835Z" transform="translate(-1042.765 -41.48)" fill="#fff"/>
        <path id="Trazado_6657" data-name="Trazado 6657" d="M1322.763,142.734c3.033,4.689,7.093,3.617,11.421.365,4.311-3.234,3.489-5.929-.2-9.25-2.728-2.445-5.378-2.677-7.932-.073-1.122,1.145-2.841,2.586-3.229,4.041C1322.472,139.112,1323.22,140.4,1322.763,142.734Z" transform="translate(-1066.9 -24.035)" fill="#fff"/>
        <path id="Trazado_6658" data-name="Trazado 6658" d="M1305.32,155.764c3.033,4.693,7.092,3.617,11.421.369,4.306-3.238,3.484-5.934-.205-9.25-2.728-2.449-5.377-2.677-7.931-.073-1.122,1.145-2.846,2.586-3.234,4.036C1305.028,152.147,1305.771,153.438,1305.32,155.764Z" transform="translate(-1129.027 22.375)" fill="#fff"/>
        <path id="Trazado_6659" data-name="Trazado 6659" d="M1348.561,132.54c2.992-2.094,7.6-7.361,1.8-9-2.874-.812-8.055,1.464-9.4,4.146C1338.956,131.682,1345.158,134.177,1348.561,132.54Z" transform="translate(-1003.342 -54.474)" fill="#fff"/>
        <path id="Trazado_6660" data-name="Trazado 6660" d="M1328.507,124.287c2.992-2.094,7.6-7.361,1.8-9-2.873-.812-8.055,1.469-9.4,4.151C1318.9,123.43,1325.109,125.929,1328.507,124.287Z" transform="translate(-1074.755 -83.86)" fill="#fff"/>
        <path id="Trazado_6661" data-name="Trazado 6661" d="M1308.379,148.021c2.992-2.093,7.6-7.361,1.8-9-2.874-.812-8.055,1.464-9.4,4.146C1298.778,147.164,1304.981,149.663,1308.379,148.021Z" transform="translate(-1146.426 0.671)" fill="#fff"/>
        <path id="Trazado_6662" data-name="Trazado 6662" d="M1335.477,145.086c2.992-2.089,7.6-7.361,1.8-9-2.874-.812-8.055,1.464-9.4,4.146C1325.876,144.233,1332.079,146.728,1335.477,145.086Z" transform="translate(-1049.93 -9.78)" fill="#fff"/>
        <path id="Trazado_6663" data-name="Trazado 6663" d="M1316.066,147.016c2.992-2.094,7.6-7.366,1.8-9-2.873-.812-8.059,1.464-9.4,4.146C1306.46,146.158,1312.668,148.653,1316.066,147.016Z" transform="translate(-1119.057 -2.925)" fill="#fff"/>
        <path id="Trazado_6664" data-name="Trazado 6664" d="M1350.378,144.359c1.081-3.767,5.309-8.962.844-11.284-2.677-1.391-4.282-1.122-5.756,1.66-1.082,2.03-3.092,6.49-2.468,8.816A16.9,16.9,0,0,0,1350.378,144.359Z" transform="translate(-995.121 -22.832)" fill="#fff"/>
        <path id="Trazado_6665" data-name="Trazado 6665" d="M1367.915,138.165c1.08-3.767,5.309-8.962.843-11.284-2.677-1.391-4.282-1.117-5.756,1.66-1.081,2.034-3.092,6.495-2.468,8.821A16.842,16.842,0,0,0,1367.915,138.165Z" transform="translate(-932.671 -44.884)" fill="#fff"/>
        <path id="Trazado_6666" data-name="Trazado 6666" d="M1333.988,155.332c1.082-3.767,5.309-8.967.844-11.288-2.678-1.391-4.282-1.117-5.761,1.66-1.076,2.034-3.087,6.495-2.468,8.821A16.921,16.921,0,0,0,1333.988,155.332Z" transform="translate(-1053.495 16.23)" fill="#fff"/>
        <path id="Trazado_6667" data-name="Trazado 6667" d="M1326.791,139.854c1.077-3.767,5.305-8.962.84-11.284-2.677-1.391-4.283-1.122-5.756,1.66-1.08,2.03-3.092,6.49-2.468,8.816A16.847,16.847,0,0,0,1326.791,139.854Z" transform="translate(-1079.129 -38.874)" fill="#fff"/>
        <path id="Trazado_6668" data-name="Trazado 6668" d="M1346.328,140.254c1.082-3.767,5.309-8.962.844-11.284-2.678-1.391-4.283-1.122-5.761,1.66-1.076,2.03-3.088,6.495-2.463,8.821A16.839,16.839,0,0,0,1346.328,140.254Z" transform="translate(-1009.543 -37.45)" fill="#fff"/>
        <path id="Trazado_6669" data-name="Trazado 6669" d="M1319.636,150.217c3.257-2.18,9.842-3.421,7.931-8.073-1.149-2.791-2.55-3.621-5.473-2.449-2.134.853-6.549,2.965-7.576,5.145A16.928,16.928,0,0,0,1319.636,150.217Z" transform="translate(-1096.119 1.823)" fill="#fff"/>
        <path id="Trazado_6670" data-name="Trazado 6670" d="M1331.754,136.1c1.077-3.763,5.305-8.962.844-11.284-2.678-1.391-4.288-1.117-5.761,1.66-1.076,2.034-3.092,6.495-2.468,8.821A16.864,16.864,0,0,0,1331.754,136.1Z" transform="translate(-1061.455 -52.231)" fill="#fff"/>
        <path id="Trazado_6671" data-name="Trazado 6671" d="M1335.783,120.368c1.076-3.767,5.3-8.962.844-11.284-2.677-1.391-4.283-1.122-5.76,1.66-1.076,2.03-3.092,6.49-2.468,8.821A16.859,16.859,0,0,0,1335.783,120.368Z" transform="translate(-1047.108 -108.264)" fill="#fff"/>
      </g>
    </g>
  </g>
</svg>
