<svg xmlns="http://www.w3.org/2000/svg" xmlns:xlink="http://www.w3.org/1999/xlink" width="562" height="277" viewBox="0 0 562 277">
  <defs>
    <clipPath id="clip-memphis-6">
      <rect width="562" height="277"/>
    </clipPath>
  </defs>
  <g id="memphis-6" clip-path="url(#clip-memphis-6)">
    <rect width="562" height="277" fill="rgba(255,255,255,0)"/>
    <g id="Grupo_460" data-name="Grupo 460" transform="translate(0.029 -0.068)">
      <path id="Trazado_6597" data-name="Trazado 6597" d="M870.512,50.726s-11.5-12.048-6.907-22.1,20.261-10.591,20.261-10.591c18.88.46,50.142,29.006,71.449,56.5,14.807,19.109,27.755,41.2,40.276,62.567,28.565,48.728,55.543,94.756,103.407,111.861,36.844,13.168,82.178.331,103.2-29.225,5.41-7.6,9.71-16.58,14.258-26.083,4.509-9.42,9.174-19.163,15.394-28.6,23.093-35.042,77.844-61.777,122.055-59.6,30.256,1.491,54.154,16.075,67.294,41.068,0,0,11.234,22.47-10.057,28.857-19.16,5.855-26.28-9.751-26.28-9.751-6.375-12.12-17.16-18.389-32.979-19.171-32.492-1.6-72.072,20.424-85.755,41.187-4.677,7.1-8.548,15.18-12.645,23.737-5.1,10.65-10.37,21.664-17.833,32.156-31.643,44.477-96.332,63.431-150.47,44.081-61.919-22.127-95.434-79.31-125.009-129.761-12.41-21.17-24.131-41.167-37.315-58.179S870.512,50.726,870.512,50.726Z" transform="translate(-862.521 -18.032)" fill="#ffc852" stroke="rgba(0,0,0,0)" stroke-width="1"/>
    </g>
  </g>
</svg>
