<svg xmlns="http://www.w3.org/2000/svg" xmlns:xlink="http://www.w3.org/1999/xlink" width="543" height="323" viewBox="0 0 543 323">
  <defs>
    <clipPath id="clip-memphis-4">
      <rect width="543" height="323"/>
    </clipPath>
  </defs>
  <g id="memphis-4" clip-path="url(#clip-memphis-4)">
    <rect width="543" height="323" fill="rgba(255,255,255,0)"/>
    <g id="Grupo_503" data-name="Grupo 503" transform="translate(-842 -1094)">
      <path id="Trazado_6547" data-name="Trazado 6547" d="M1037.221,154.485c-47.969,34.342-85.453,92.168-60.851,151.473,12.559,30.288,31.979,60.214,60.334,77.826,34.08,21.172,75.558,12.994,113.038,6.8,29.07-4.808,58.29-9.654,86.193-19.119,31.885-10.816,49.738-31.484,50.431-65.706.908-44.594-3.465-90.446-15.4-133.543-7.739-27.942-61.6-32.164-84.515-37.149-36.072-7.855-73.957-12.086-109.844-.947C1063.635,138.147,1050.137,145.236,1037.221,154.485Z" transform="translate(-126.461 966.521)" fill="#ffc852"/>
      <g id="Grupo_461" data-name="Grupo 461" transform="translate(923.999 1156.773)">
        <path id="Trazado_6599" data-name="Trazado 6599" d="M972.711,451.9a41.028,41.028,0,0,0,5.062,1.794c1.874.555,3.845,1.381,5.808,1.376,5.764-.013,7.149-7.171,2.012-9.6-1.75-.826-3.934-.91-5.844-1.2a40.468,40.468,0,0,0-5.328-.528,4.219,4.219,0,0,0-1.71,8.157Z" transform="translate(-811.874 -320.945)" fill="#fff"/>
        <path id="Trazado_6600" data-name="Trazado 6600" d="M978.121,458.691a13.608,13.608,0,0,0,5.782,4.414,4.96,4.96,0,0,0,4.529-8.725,13.7,13.7,0,0,0-6.825-2.478,4.18,4.18,0,0,0-3.979,2.234,4.244,4.244,0,0,0,.493,4.556Z" transform="translate(-787.226 -292.892)" fill="#fff"/>
        <path id="Trazado_6601" data-name="Trazado 6601" d="M983.237,455.3c1.27.462,2.526.884,3.832,1.243a17.287,17.287,0,0,0,4.632,1.034,4.685,4.685,0,0,0,1.9-9.089c-2.58-1.013-6-.888-8.747-.919-4.409-.049-6.07,6.115-1.621,7.731Z" transform="translate(-775.371 -307.792)" fill="#fff"/>
        <path id="Trazado_6602" data-name="Trazado 6602" d="M973.776,440.659a27.438,27.438,0,0,0,3.983,3.392,4.843,4.843,0,1,0,3.126-8.77,27.763,27.763,0,0,0-5.226.107,3.249,3.249,0,0,0-1.883,5.271Z" transform="translate(-801.53 -350.297)" fill="#fff"/>
        <path id="Trazado_6603" data-name="Trazado 6603" d="M960.369,437.259c.009.5-.111,1.044-.124,1.785a8.311,8.311,0,0,0,.662,3.162,9.847,9.847,0,0,0,3.122,4.845c3.122,2.491,8.051-.782,7.153-4.556a9.847,9.847,0,0,0-3.1-4.844,8.417,8.417,0,0,0-2.478-1.87,9.249,9.249,0,0,0-1.181-.4c-1.23-.382.378.191-.644-.32a2.553,2.553,0,0,0-3.41,2.194Z" transform="translate(-845.454 -351.466)" fill="#fff"/>
        <path id="Trazado_6604" data-name="Trazado 6604" d="M955.956,452.252c.444,2.8.533,5.9,2.367,8.215,2.637,3.339,8.321,1.4,8.566-2.718.173-2.877-1.616-5.555-2.851-8.077a4.34,4.34,0,0,0-5.2-2.207,4.239,4.239,0,0,0-2.882,4.787Z" transform="translate(-860.401 -308.841)" fill="#fff"/>
        <path id="Trazado_6605" data-name="Trazado 6605" d="M967.908,457.555c.875.213-1.154-.91-1.177-.933L966.34,456c.173.346.178.306.009-.124a1.486,1.486,0,0,1-.138-.746c0-.431-.009-.519-.036-.262.08.382-.524,1.123.089-.462a5.04,5.04,0,0,0,2.5,6.141,5.1,5.1,0,0,0,6.474-1.519c3.33-4.529-1-11.536-6.669-10.24a4.638,4.638,0,0,0-3.721,4.13c-.049,1.861,1.061,4.156,3.059,4.64Z" transform="translate(-829.618 -304.14)" fill="#fff"/>
        <path id="Trazado_6606" data-name="Trazado 6606" d="M952.3,447.136a28.349,28.349,0,0,0,5.018,2.642,4.684,4.684,0,1,0,3.148-8.823,27.769,27.769,0,0,0-5.555-1.132c-3.925-.564-6.008,5.262-2.611,7.313Z" transform="translate(-878.677 -334.564)" fill="#fff"/>
        <path id="Trazado_6607" data-name="Trazado 6607" d="M955.978,436.873c6.119,2.185,9.485-7.211,3.357-9.4s-9.484,7.211-3.357,9.4Z" transform="translate(-871.293 -378.047)" fill="#fff"/>
        <path id="Trazado_6608" data-name="Trazado 6608" d="M969.4,437.731c7.189,2.567,11.146-8.477,3.943-11.048S962.2,435.16,969.4,437.731Z" transform="translate(-827.078 -380.957)" fill="#fff"/>
        <path id="Trazado_6609" data-name="Trazado 6609" d="M989.654,447.426A16.4,16.4,0,0,0,998.3,451.1c2.993.355,4.849-3.464,2.909-5.67a16.4,16.4,0,0,0-7.935-4.973,3.975,3.975,0,0,0-3.619,6.971Z" transform="translate(-749.848 -332.975)" fill="#fff"/>
        <path id="Trazado_6610" data-name="Trazado 6610" d="M989.546,463.323c.9,2.584,2.207,4.7,4.96,5.613,2.234.737,5.386-.742,5.293-3.406a7.1,7.1,0,0,0-1.537-4.658,13.083,13.083,0,0,0-2.85-2.447,4.065,4.065,0,0,0-4.849.191,4.128,4.128,0,0,0-1.017,4.707Z" transform="translate(-745.743 -272.87)" fill="#fff"/>
        <path id="Trazado_6611" data-name="Trazado 6611" d="M982.633,470.573c.182.107.351.235.529.351a2.91,2.91,0,0,0,.622.337c.6.311.688.351.253.129-.568-.626.1.293.2.2l-.448-.386c.24.311.248.3.022-.036-.071-.5-.094-.142.031.124a8,8,0,0,0,.83,1.448c-.12-.164-.51-.861-.222-.3a6.5,6.5,0,0,0,1.7,1.958,4.269,4.269,0,0,0,3.974.573,4.664,4.664,0,0,0,2.855-2.7c1.376-2.7-.564-5.995-2.833-7.527-2.03-1.372-4.734-2.034-6.971-.813-2.354,1.288-3.237,5.053-.547,6.643Z" transform="translate(-774.123 -253.7)" fill="#fff"/>
        <path id="Trazado_6612" data-name="Trazado 6612" d="M972.068,465.293a5.759,5.759,0,0,0,3.366-.5,4.346,4.346,0,0,0,2.016-5.657,5.619,5.619,0,0,0-2.287-2.513,4.788,4.788,0,1,0-3.095,8.668Z" transform="translate(-820.159 -279.539)" fill="#fff"/>
        <path id="Trazado_6613" data-name="Trazado 6613" d="M998.691,477.955a19.386,19.386,0,0,0,4.449,4.787c1.936,1.576,4.063,2.788,6.656,2.256a4.483,4.483,0,0,0,3.521-5.12c-.248-2.4-2.091-4.045-4.014-5.3a18.5,18.5,0,0,0-5.142-2.615,4.516,4.516,0,0,0-4.724,1.172,4.306,4.306,0,0,0-.746,4.822Z" transform="translate(-714.743 -224.551)" fill="#fff"/>
        <path id="Trazado_6614" data-name="Trazado 6614" d="M993.48,458.971l.031.386c.413,5.031,8,5.066,9.534.777,1.767-4.956-4.01-7.944-7.873-5.435l-.324.209a4.084,4.084,0,0,0-1.456,4.081l.12.369c1.4,4.378,7.766,5.724,9.534.777,1.523-4.267-4.339-9.1-7.873-5.435a4.866,4.866,0,0,0-1.692,4.272Z" transform="translate(-731.822 -287.71)" fill="#fff"/>
        <path id="Trazado_6615" data-name="Trazado 6615" d="M948.075,427.507c-1.621-3.246-4.516-6.674-8.361-7.1a4.914,4.914,0,0,0-5.2,5.777c.906,3.717,4.592,6.177,8.051,7.375,3.606,1.243,7.26-2.553,5.515-6.048Z" transform="translate(-934.393 -401.336)" fill="#fff"/>
        <path id="Trazado_6616" data-name="Trazado 6616" d="M955.137,436.772c-2.313-1.714-4.9-3.832-7.753-4.516-2.331-.559-4.8.235-5.661,2.642-.871,2.438.537,4.583,2.709,5.63,2.651,1.279,5.972,1.274,8.863,1.412a2.861,2.861,0,0,0,1.843-5.169Z" transform="translate(-910.074 -361.051)" fill="#fff"/>
        <path id="Trazado_6617" data-name="Trazado 6617" d="M956.266,427.619a14.879,14.879,0,0,0,1.425-6.643,4.664,4.664,0,0,0-4.254-4.884,4.769,4.769,0,0,0-2.3.422,4.568,4.568,0,0,0-2.158,6.044,15.376,15.376,0,0,0,3.987,5.626,2.387,2.387,0,0,0,3.3-.564Z" transform="translate(-885.683 -416.088)" fill="#fff"/>
        <path id="Trazado_6618" data-name="Trazado 6618" d="M969.948,428.538a22.825,22.825,0,0,1,.307-2.46,16.316,16.316,0,0,0-.147-3.392c-.395-3.21-4.316-4.867-7.065-3.583-2.789,1.3-3.881,5.293-1.656,7.66a16.679,16.679,0,0,0,2.527,2.273,22.833,22.833,0,0,1,2.078,1.35,2.524,2.524,0,0,0,3.956-1.847Z" transform="translate(-845.611 -407.22)" fill="#fff"/>
        <path id="Trazado_6619" data-name="Trazado 6619" d="M987.173,437.213a31.513,31.513,0,0,1-1.052-5.222,6.577,6.577,0,0,0-6.088-5.817,4.189,4.189,0,0,0-4.258,2.74,6.531,6.531,0,0,0,.053,4.454,7.131,7.131,0,0,0,3.348,3.437,32.242,32.242,0,0,1,4.423,2.687c1.505,1.115,4.174-.333,3.575-2.278Z" transform="translate(-793.285 -381.447)" fill="#fff"/>
        <path id="Trazado_6620" data-name="Trazado 6620" d="M980.368,426a9.97,9.97,0,0,0-.8-3.654,4.953,4.953,0,0,0-9.409,1.705,6.931,6.931,0,0,0,.058,2.478,5.19,5.19,0,0,0,5.342,4.112c2.3-.12,4.938-2.1,4.813-4.64Z" transform="translate(-811.643 -404.333)" fill="#fff"/>
        <path id="Trazado_6621" data-name="Trazado 6621" d="M994.55,473.1l.746-.035c4.236-.2,5.826-4.636,2.669-7.473l-.559-.5c-5.724-5.142-10.6,8.37-2.855,8.011Z" transform="translate(-741.219 -251.525)" fill="#fff"/>
        <path id="Trazado_6622" data-name="Trazado 6622" d="M975.6,464.416c-.622,2.327-1.8,5.222-.431,7.5a3.964,3.964,0,0,0,2.677,2.06,3.6,3.6,0,0,0,3.237-.764,6.443,6.443,0,0,0,1.909-4.267c.062-.977-.067-2-.1-2.98a3.825,3.825,0,0,0-3-3.9,3.69,3.69,0,0,0-4.3,2.344Z" transform="translate(-796.299 -258.16)" fill="#fff"/>
      </g>
      <g id="Grupo_466" data-name="Grupo 466" transform="translate(1053.183 1234.359)">
        <path id="Trazado_6675" data-name="Trazado 6675" d="M1176.9,624.859s10.335,3.524,4.613,13.878c-7.084,9.264-14.149,6.486-14.149,6.486-13.527-6.916-54.157-24.956-75.47-50.671-8.176-9.865-12.7-23.065-18.293-34.936-12.766-27.075-24.823-52.651-49.277-63.949-18.823-8.7-43.361-4.074-55.861,10.531a93.815,93.815,0,0,0-8.763,13.091,124.269,124.269,0,0,1-9.481,14.367c-13.851,17.4-44.021,28.919-67.253,25.671-15.9-2.222-27.879-9.962-30.876-23.858,0,0-3-12.534,5.722-11.989s10.9,5.995,10.9,5.995c2.789,6.7,8.953,7.143,17.266,8.3,17.076,2.387,39.012-7.363,47.221-17.674a106.639,106.639,0,0,0,7.8-11.929,111.381,111.381,0,0,1,10.938-16.127c18.811-21.977,53.858-28.913,81.516-16.133,31.634,14.616,46.613,46.389,59.831,74.423,5.547,11.763,9.936,23.473,16.938,32.479C1131.144,609.729,1176.9,624.859,1176.9,624.859Z" transform="translate(-851.597 -469.533)" fill="#f4844d"/>
      </g>
    </g>
  </g>
</svg>
