<svg xmlns="http://www.w3.org/2000/svg" xmlns:xlink="http://www.w3.org/1999/xlink" width="150" height="150" viewBox="0 0 150 150">
  <defs>
    <clipPath id="clip-icon-footer--dribbble">
      <rect width="150" height="150"/>
    </clipPath>
  </defs>
  <g id="icon-footer--dribbble" clip-path="url(#clip-icon-footer--dribbble)">
    <rect width="150" height="150" fill="rgba(255,255,255,0)"/>
    <g id="Grupo_472" data-name="Grupo 472" transform="translate(-9958.329 -1444)">
      <circle id="Elipse_41" data-name="Elipse 41" cx="75" cy="75" r="75" transform="translate(9958.329 1444)" fill="#52c6ba"/>
      <path id="Icon_awesome-dribbble" data-name="Icon awesome-dribbble" d="M32.041.563A31.478,31.478,0,1,0,63.519,32.041,31.514,31.514,0,0,0,32.041.563ZM52.853,15.079a26.759,26.759,0,0,1,6.072,16.749A62.834,62.834,0,0,0,40.2,30.962c-.73-1.782-1.419-3.35-2.363-5.282C47.781,21.621,52.286,15.846,52.853,15.079ZM49.864,11.97c-.484.689-4.531,6.129-14.092,9.712A143.52,143.52,0,0,0,25.74,5.942,26.818,26.818,0,0,1,49.864,11.97ZM20.61,7.749A171.559,171.559,0,0,1,30.578,23.3,100.29,100.29,0,0,1,5.721,26.575,26.986,26.986,0,0,1,20.61,7.749ZM5.154,32.082c0-.275.005-.549.014-.822A99.182,99.182,0,0,0,32.8,27.434c.77,1.506,1.5,3.036,2.18,4.563C25.258,34.735,16.424,42.6,12.066,50.06A26.78,26.78,0,0,1,5.154,32.082ZM15.537,53.293c2.809-5.741,10.431-13.153,21.271-16.851a111.763,111.763,0,0,1,5.736,20.39,26.833,26.833,0,0,1-27.006-3.539Zm31.527,1.077A116.048,116.048,0,0,0,41.84,35.2,39.464,39.464,0,0,1,58.588,36.35,26.934,26.934,0,0,1,47.064,54.371Z" transform="translate(9999.809 1484.909)" fill="#fff"/>
    </g>
  </g>
</svg>
