<svg xmlns="http://www.w3.org/2000/svg" xmlns:xlink="http://www.w3.org/1999/xlink" width="150" height="150" viewBox="0 0 150 150">
  <defs>
    <clipPath id="clip-icon-footer-behance">
      <rect width="150" height="150"/>
    </clipPath>
  </defs>
  <g id="icon-footer-behance" clip-path="url(#clip-icon-footer-behance)">
    <rect width="150" height="150" fill="rgba(255,255,255,0)"/>
    <g id="Grupo_470" data-name="Grupo 470" transform="translate(-9609 -1444)">
      <circle id="Elipse_39" data-name="Elipse 39" cx="75" cy="75" r="75" transform="translate(9609 1444)" fill="#52c6ba"/>
      <path id="Icon_awesome-behance" data-name="Icon awesome-behance" d="M30.3,26.432c4.153-1.985,6.321-4.989,6.321-9.664,0-9.22-6.87-11.467-14.8-11.467H0V51.586H22.437c8.411,0,16.312-4.036,16.312-13.439,0-5.812-2.756-10.108-8.45-11.715ZM10.174,13.2H19.72c3.67,0,6.974,1.032,6.974,5.289,0,3.931-2.573,5.511-6.2,5.511H10.174ZM21.053,43.724H10.174V30.977H21.262c4.48,0,7.314,1.868,7.314,6.608,0,4.675-3.383,6.138-7.522,6.138Zm46.82-31.435H49.105V7.731H67.872Zm7.353,23.025c0-9.912-5.8-18.179-16.312-18.179-10.213,0-17.148,7.679-17.148,17.735,0,10.435,6.569,17.592,17.148,17.592,8.006,0,13.19-3.6,15.685-11.271H66.475C65.6,44.05,62,45.565,59.2,45.565c-5.394,0-8.228-3.16-8.228-8.528H75.147C75.186,36.489,75.225,35.9,75.225,35.313ZM50.986,31.239c.3-4.4,3.226-7.157,7.64-7.157,4.623,0,6.948,2.716,7.34,7.157Z" transform="translate(9647.954 1489.477)" fill="#fff"/>
    </g>
  </g>
</svg>
