<svg xmlns="http://www.w3.org/2000/svg" xmlns:xlink="http://www.w3.org/1999/xlink" width="150" height="150" viewBox="0 0 150 150">
  <defs>
    <clipPath id="clip-icon-footer-instagram">
      <rect width="150" height="150"/>
    </clipPath>
  </defs>
  <g id="icon-footer-instagram" clip-path="url(#clip-icon-footer-instagram)">
    <rect width="150" height="150" fill="rgba(255,255,255,0)"/>
    <circle id="Elipse_43" data-name="Elipse 43" cx="75" cy="75" r="75" transform="translate(0 0)" fill="#52c6ba"/>
    <path id="Icon_awesome-instagram" data-name="Icon awesome-instagram" d="M33.073,18.347A16.954,16.954,0,1,0,50.027,35.3,16.927,16.927,0,0,0,33.073,18.347Zm0,27.976A11.022,11.022,0,1,1,44.1,35.3,11.042,11.042,0,0,1,33.073,46.323Zm21.6-28.67A3.954,3.954,0,1,1,50.72,13.7,3.945,3.945,0,0,1,54.675,17.653ZM65.9,21.667c-.251-5.3-1.461-9.989-5.341-13.855S52,2.736,46.707,2.47c-5.46-.31-21.823-.31-27.283,0C14.142,2.721,9.449,3.931,5.569,7.8S.493,16.355.227,21.652c-.31,5.46-.31,21.823,0,27.283.251,5.3,1.461,9.989,5.341,13.855s8.558,5.076,13.855,5.341c5.46.31,21.823.31,27.283,0,5.3-.251,9.989-1.461,13.855-5.341s5.076-8.558,5.341-13.855c.31-5.46.31-21.809,0-27.268ZM58.851,54.793a11.159,11.159,0,0,1-6.286,6.286c-4.353,1.726-14.682,1.328-19.492,1.328s-15.154.384-19.492-1.328a11.159,11.159,0,0,1-6.286-6.286C5.569,50.44,5.967,40.111,5.967,35.3S5.583,20.147,7.295,15.809a11.159,11.159,0,0,1,6.286-6.286C17.934,7.8,28.263,8.2,33.073,8.2s15.154-.384,19.492,1.328a11.159,11.159,0,0,1,6.286,6.286c1.726,4.353,1.328,14.682,1.328,19.492S60.577,50.455,58.851,54.793Z" transform="translate(41.066 39.233)" fill="#fff"/>
  </g>
</svg>
