<svg xmlns="http://www.w3.org/2000/svg" xmlns:xlink="http://www.w3.org/1999/xlink" width="600" height="600" viewBox="0 0 600 600">
  <defs>
    <clipPath id="clip-favicon-cedeno">
      <rect width="600" height="600"/>
    </clipPath>
  </defs>
  <g id="favicon-cedeno" clip-path="url(#clip-favicon-cedeno)">
    <rect width="600" height="600" fill="rgba(255,255,255,0)"/>
    <g id="Grupo_62" data-name="Grupo 62" transform="translate(58 5)">
      <circle id="Elipse_20" data-name="Elipse 20" cx="105.282" cy="105.282" r="105.282" transform="translate(141.98 192.735)" fill="#52c6ba"/>
      <g id="Grupo_61" data-name="Grupo 61" transform="translate(0)">
        <path id="Trazado_220" data-name="Trazado 220" d="M-565.224,3237a7.671,7.671,0,0,1-7.673-7.555,7.664,7.664,0,0,1,7.558-7.789c123.736-1.91,189.563-76.121,212.121-107.946a8.448,8.448,0,0,0,1.418-6.531,8.653,8.653,0,0,0-3.779-5.671l-76.964-50.521a6.948,6.948,0,0,0-9.076,1.341c-46.656,53.082-123.261,58.095-126.5,58.279-84.008,10.929-224.469-66.579-245.057-196.033-9.811-61.725,8.47-126.3,50.167-177.146,45.154-55.08,111.549-87.073,186.957-90.072,133.9-5.18,218.1,89.161,240.757,118.241a18.855,18.855,0,0,1,3.7,14.755,18.878,18.878,0,0,1-8.462,12.678l-88.692,56.323a21.466,21.466,0,0,1-26.183-2.361c-56.867-53.51-113.074-54.191-113.634-54.191-131.417,0-150,126.135-150.732,131.515a7.651,7.651,0,0,1-8.638,6.57,7.67,7.67,0,0,1-6.576-8.639c.2-1.44,21.278-144.808,165.954-144.808,10.716-.007,62.9.738,124.142,58.363a6.148,6.148,0,0,0,7.435.591l88.691-56.332a3.44,3.44,0,0,0,1.564-2.329,3.408,3.408,0,0,0-.674-2.7C-368.931,2747.4-449.2,2657.514-575.441,2662.7c-70.971,2.821-133.363,32.813-175.7,84.453-38.915,47.477-55.993,107.609-46.871,165.011,19.215,120.907,149.865,193.319,228.462,183.164,1.265-.1,74.052-4.951,116.393-53.143a22.456,22.456,0,0,1,29.043-4.03l76.956,50.519a23.878,23.878,0,0,1,10.448,15.661,23.707,23.707,0,0,1-3.986,18.257C-364.608,3156.323-434.336,3235-565.1,3237Z" transform="translate(815.775 -2647.152)" fill="#303030"/>
      </g>
    </g>
  </g>
</svg>
