<svg xmlns="http://www.w3.org/2000/svg" xmlns:xlink="http://www.w3.org/1999/xlink" width="767" height="324" viewBox="0 0 767 324">
  <defs>
    <clipPath id="clip-logo-cedeno">
      <rect width="767" height="324"/>
    </clipPath>
  </defs>
  <g id="logo-cedeno" clip-path="url(#clip-logo-cedeno)">
    <rect width="767" height="324" fill="rgba(255,255,255,0)"/>
    <g id="Grupo_454" data-name="Grupo 454" transform="translate(-140 -12)">
      <g id="Grupo_62" data-name="Grupo 62" transform="translate(140 12)">
        <circle id="Elipse_20" data-name="Elipse 20" cx="57.774" cy="57.774" r="57.774" transform="translate(77.912 105.764)" fill="#52c6ba"/>
        <g id="Grupo_61" data-name="Grupo 61" transform="translate(0)">
          <path id="Trazado_220" data-name="Trazado 220" d="M-678.284,2970.834a4.209,4.209,0,0,1-4.211-4.146,4.206,4.206,0,0,1,4.148-4.274c67.9-1.048,104.023-41.771,116.4-59.236a4.636,4.636,0,0,0,.778-3.584,4.748,4.748,0,0,0-2.074-3.112l-42.234-27.724a3.812,3.812,0,0,0-4.98.736c-25.6,29.129-67.64,31.88-69.419,31.98-46.1,6-123.178-36.535-134.476-107.574-5.384-33.872,4.648-69.305,27.529-97.21,24.779-30.226,61.213-47.782,102.593-49.427,73.478-2.843,119.683,48.927,132.116,64.885a10.348,10.348,0,0,1,2.028,8.1,10.359,10.359,0,0,1-4.644,6.957l-48.67,30.907a11.779,11.779,0,0,1-14.368-1.3c-31.206-29.364-62.05-29.737-62.357-29.737-72.115,0-82.315,69.217-82.715,72.169a4.2,4.2,0,0,1-4.74,3.6,4.209,4.209,0,0,1-3.609-4.741c.109-.79,11.676-79.464,91.068-79.464,5.881,0,34.516.405,68.123,32.027a3.372,3.372,0,0,0,4.08.325l48.67-30.912a1.888,1.888,0,0,0,.858-1.278,1.869,1.869,0,0,0-.37-1.481c-11.811-15.163-55.858-64.489-125.134-61.641-38.945,1.548-73.184,18.006-96.414,46.344-21.355,26.053-30.726,59.051-25.721,90.551,10.545,66.348,82.239,106.084,125.369,100.512.694-.055,40.636-2.717,63.871-29.163a12.323,12.323,0,0,1,15.937-2.211l42.23,27.723a13.1,13.1,0,0,1,5.733,8.594,13.01,13.01,0,0,1-2.187,10.019c-13.123,18.507-51.387,61.684-123.145,62.777Z" transform="translate(815.775 -2647.152)" fill="#303030"/>
        </g>
      </g>
      <text id="Cedeño" transform="translate(435 221)" fill="#303030" font-size="126" font-family="Quicksand-Regular, Quicksand"><tspan x="0" y="0">Cedeño</tspan></text>
    </g>
  </g>
</svg>
